<svg xmlns="http://www.w3.org/2000/svg" xmlns:xlink="http://www.w3.org/1999/xlink" width="500" zoomAndPan="magnify" viewBox="0 0 375 374.999991" height="500" preserveAspectRatio="xMidYMid meet" version="1.0"><path fill="#fca503" d="M 177.089844 313.671875 C 177.089844 319.300781 173.089844 326.199219 168.238281 329.058594 L 97.429688 369.9375 C 92.523438 372.757812 84.527344 372.757812 79.726562 369.910156 L 8.851562 329.007812 C 3.972656 326.199219 -0.0390625 319.300781 0 313.683594 L 0 231.863281 C 0 226.261719 3.972656 219.351562 8.878906 216.527344 L 79.648438 175.625 C 84.578125 172.816406 92.535156 172.816406 97.429688 175.625 L 168.265625 216.527344 C 173.089844 219.324219 177.089844 226.261719 177.140625 231.863281 Z M 177.089844 313.671875 " fill-opacity="1" fill-rule="nonzero"/><path fill="#fca503" d="M 374.3125 313.671875 C 374.3125 319.300781 370.351562 326.199219 365.460938 329.058594 L 294.613281 369.9375 C 289.746094 372.757812 281.75 372.757812 276.898438 369.910156 L 206.089844 329.007812 C 201.210938 326.199219 197.183594 319.300781 197.210938 313.683594 L 197.210938 231.863281 C 197.210938 226.261719 201.210938 219.351562 206.089844 216.527344 L 276.898438 175.625 C 281.75 172.816406 289.785156 172.816406 294.613281 175.625 L 365.460938 216.527344 C 370.351562 219.324219 374.3125 226.261719 374.351562 231.863281 Z M 374.3125 313.671875 " fill-opacity="1" fill-rule="nonzero"/><path fill="#fca503" d="M 275.707031 144.128906 C 275.707031 149.730469 271.746094 156.679688 266.867188 159.476562 L 196.007812 200.378906 C 191.128906 203.160156 183.171875 203.160156 178.265625 200.378906 L 107.445312 159.476562 C 102.578125 156.679688 98.59375 149.746094 98.59375 144.128906 L 98.59375 62.332031 C 98.644531 56.703125 102.578125 49.78125 107.445312 46.945312 L 178.265625 6.121094 C 183.210938 3.257812 191.128906 3.257812 196.007812 6.121094 L 266.867188 46.945312 C 271.722656 49.78125 275.707031 56.691406 275.707031 62.332031 Z M 275.707031 144.128906 " fill-opacity="1" fill-rule="nonzero"/></svg>