<svg xmlns="http://www.w3.org/2000/svg" xmlns:xlink="http://www.w3.org/1999/xlink" width="500" zoomAndPan="magnify" viewBox="0 0 375 374.999991" height="500" preserveAspectRatio="xMidYMid meet" version="1.0"><defs><clipPath id="de47c99594"><path d="M 38.109375 46 L 336.609375 46 L 336.609375 328.738281 L 38.109375 328.738281 Z M 38.109375 46 " clip-rule="nonzero"/></clipPath></defs><g clip-path="url(#de47c99594)"><path fill="#3e77ac" d="M 313.777344 260.941406 C 299.527344 246.691406 279.851562 237.839844 258.222656 237.839844 L 231.019531 237.839844 C 231.027344 237.480469 231.050781 237.125 231.050781 236.765625 L 231.050781 223.707031 C 232.230469 222.683594 233.371094 221.617188 234.476562 220.511719 C 237.839844 217.152344 240.847656 213.421875 243.441406 209.414062 C 257.058594 207.851562 267.691406 203.101562 270.410156 190.457031 C 274.738281 189.605469 278.605469 187.46875 281.609375 184.464844 C 285.558594 180.515625 288.015625 175.054688 288.015625 169.054688 L 288.015625 144.878906 C 288.015625 138.871094 285.558594 133.421875 281.609375 129.46875 L 281.300781 129.183594 C 278.695312 126.675781 275.476562 124.816406 271.90625 123.828125 C 271.914062 123.738281 271.921875 123.65625 271.921875 123.570312 C 271.921875 102.199219 262.621094 82.792969 247.636719 68.738281 C 232.722656 54.746094 212.1875 46.066406 189.625 46.066406 L 185.375 46.066406 C 162.808594 46.066406 142.277344 54.746094 127.367188 68.738281 C 112.386719 82.792969 103.085938 102.199219 103.085938 123.570312 C 103.085938 123.65625 103.09375 123.738281 103.101562 123.828125 C 99.402344 124.84375 96.078125 126.808594 93.421875 129.460938 L 93.398438 129.484375 C 89.445312 133.441406 86.988281 138.894531 86.988281 144.878906 L 86.988281 169.054688 C 86.988281 174.898438 89.328125 180.222656 93.113281 184.160156 L 93.398438 184.464844 C 97.347656 188.417969 102.800781 190.875 108.808594 190.875 C 113.855469 190.875 118.511719 189.132812 122.214844 186.234375 C 124.800781 199.464844 131.328125 211.324219 140.523438 220.519531 C 142.246094 222.246094 144.0625 223.867188 145.964844 225.398438 L 145.964844 236.78125 C 145.964844 237.136719 145.980469 237.496094 145.996094 237.855469 L 116.777344 237.855469 C 95.136719 237.855469 75.472656 246.707031 61.222656 260.957031 C 46.960938 275.195312 38.109375 294.867188 38.109375 316.5 L 38.109375 324.101562 C 38.109375 326.761719 40.269531 328.921875 42.929688 328.921875 L 332.0625 328.921875 C 334.722656 328.921875 336.878906 326.761719 336.878906 324.101562 L 336.878906 316.5 C 336.878906 294.867188 328.03125 275.195312 313.777344 260.941406 Z M 249.140625 198.425781 C 250.722656 194.527344 251.957031 190.441406 252.777344 186.21875 C 254.996094 187.960938 257.566406 189.28125 260.351562 190.058594 C 258.519531 194.308594 254.507812 196.894531 249.140625 198.425781 Z M 274.78125 136.273438 C 276.992188 138.484375 278.367188 141.523438 278.367188 144.871094 L 278.367188 169.046875 C 278.367188 172.394531 276.992188 175.441406 274.78125 177.644531 C 272.570312 179.855469 269.523438 181.230469 266.175781 181.230469 C 262.832031 181.230469 259.78125 179.855469 257.578125 177.644531 L 257.558594 177.644531 C 255.359375 175.449219 253.996094 172.402344 253.996094 169.046875 L 253.996094 144.871094 C 253.996094 141.507812 255.359375 138.46875 257.558594 136.273438 L 257.578125 136.25 C 259.777344 134.054688 262.824219 132.6875 266.183594 132.6875 C 269.433594 132.6875 272.398438 133.964844 274.570312 136.042969 Z M 133.949219 75.734375 C 147.125 63.375 165.320312 55.703125 185.367188 55.703125 L 189.617188 55.703125 C 209.65625 55.703125 227.859375 63.375 241.035156 75.734375 C 254.097656 87.992188 262.226562 104.871094 262.261719 123.417969 C 259.125 123.992188 256.21875 125.25 253.695312 127.027344 C 252.203125 111.222656 245.121094 96.976562 234.460938 86.320312 C 222.414062 74.269531 205.78125 66.789062 187.488281 66.789062 C 169.195312 66.789062 152.5625 74.269531 140.515625 86.320312 C 129.855469 96.976562 122.773438 111.222656 121.28125 127.027344 C 118.757812 125.25 115.851562 123.992188 112.714844 123.417969 C 112.765625 104.871094 120.886719 87.992188 133.949219 75.734375 Z M 243.925781 126.371094 C 232.574219 126.324219 221.667969 124.867188 211.234375 122.015625 C 199.28125 118.742188 187.875 113.605469 177.03125 106.605469 C 175.171875 105.410156 172.65625 105.628906 171.035156 107.261719 C 166.230469 112.074219 160.070312 116.085938 152.539062 119.289062 C 146.339844 121.925781 139.207031 124 131.175781 125.539062 C 132.910156 112.984375 138.765625 101.699219 147.339844 93.125 C 157.648438 82.816406 171.871094 76.414062 187.503906 76.414062 C 203.136719 76.414062 217.359375 82.816406 227.664062 93.125 C 236.417969 101.886719 242.34375 113.484375 243.925781 126.371094 Z M 108.808594 181.230469 C 105.460938 181.230469 102.414062 179.855469 100.210938 177.644531 L 99.984375 177.4375 C 97.910156 175.253906 96.632812 172.296875 96.632812 169.046875 L 96.632812 144.871094 C 96.632812 141.507812 98 138.46875 100.195312 136.273438 L 100.21875 136.25 C 102.414062 134.054688 105.460938 132.6875 108.820312 132.6875 C 112.183594 132.6875 115.222656 134.054688 117.417969 136.25 L 117.417969 136.273438 C 119.628906 138.484375 121.003906 141.523438 121.003906 144.871094 L 121.003906 169.046875 C 121.003906 172.394531 119.628906 175.441406 117.417969 177.644531 C 115.199219 179.855469 112.152344 181.230469 108.808594 181.230469 Z M 130.625 173.539062 L 130.625 135.429688 C 140.28125 133.734375 148.84375 131.304688 156.289062 128.132812 C 163.578125 125.03125 169.816406 121.207031 175.007812 116.683594 C 185.695312 123.179688 196.929688 128.050781 208.707031 131.269531 C 220.121094 134.390625 232.003906 135.960938 244.367188 135.96875 L 244.367188 173.53125 C 244.367188 183.15625 241.929688 192.242188 237.667969 200.210938 C 230.265625 200.703125 221.863281 200.398438 213.59375 200.082031 L 211.90625 200.023438 C 211.152344 197.550781 209.820312 195.332031 208.074219 193.539062 C 205.242188 190.640625 201.328125 188.84375 197.027344 188.84375 C 192.722656 188.84375 188.808594 190.632812 185.980469 193.539062 C 183.1875 196.402344 181.453125 200.34375 181.453125 204.683594 C 181.453125 209.023438 183.1875 212.96875 185.980469 215.828125 C 188.808594 218.726562 192.722656 220.527344 197.027344 220.527344 C 201.328125 220.527344 205.242188 218.734375 208.074219 215.828125 C 209.753906 214.101562 211.039062 211.988281 211.808594 209.636719 L 213.257812 209.6875 C 219.203125 209.914062 225.199219 210.136719 230.964844 210.09375 C 229.914062 211.339844 228.816406 212.550781 227.664062 213.707031 C 217.359375 224.015625 203.136719 230.414062 187.503906 230.414062 C 178.007812 230.414062 169.046875 228.046875 161.160156 223.886719 C 158.546875 222.46875 156.058594 220.839844 153.726562 219.03125 C 153.414062 218.792969 153.078125 218.597656 152.734375 218.441406 C 150.84375 216.972656 149.035156 215.394531 147.339844 213.707031 C 137.027344 203.390625 130.625 189.171875 130.625 173.539062 Z M 202.957031 204.683594 C 202.957031 206.433594 202.277344 208.007812 201.179688 209.128906 C 200.117188 210.21875 198.640625 210.890625 197.011719 210.890625 C 195.382812 210.890625 193.90625 210.21875 192.84375 209.128906 C 191.746094 208.007812 191.066406 206.433594 191.066406 204.683594 C 191.066406 202.9375 191.746094 201.359375 192.84375 200.238281 C 193.90625 199.148438 195.382812 198.476562 197.011719 198.476562 C 198.640625 198.476562 200.117188 199.148438 201.179688 200.238281 C 202.277344 201.359375 202.957031 202.9375 202.957031 204.683594 Z M 160.253906 234.171875 C 162.210938 235.078125 164.214844 235.898438 166.269531 236.601562 C 172.394531 238.707031 178.9375 239.886719 185.71875 240.015625 C 185.785156 240.015625 185.851562 240.015625 185.917969 240.019531 C 186.242188 240.027344 186.554688 240.042969 186.875 240.042969 L 190.117188 240.042969 C 197.308594 240.042969 204.25 238.832031 210.734375 236.609375 C 214.445312 235.332031 218.015625 233.710938 221.398438 231.789062 L 221.398438 236.765625 C 221.398438 245.535156 217.804688 253.503906 212.023438 259.285156 C 206.242188 265.066406 198.265625 268.660156 189.503906 268.660156 L 187.496094 268.660156 C 178.726562 268.660156 170.757812 265.066406 164.976562 259.285156 C 159.195312 253.503906 155.601562 245.527344 155.601562 236.765625 L 155.601562 231.84375 C 157.117188 232.671875 158.671875 233.457031 160.253906 234.171875 Z M 47.746094 316.5 C 47.746094 297.519531 55.515625 280.265625 68.023438 267.746094 C 80.535156 255.234375 97.796875 247.46875 116.777344 247.46875 L 147.386719 247.46875 C 149.304688 254.609375 153.078125 261.003906 158.164062 266.089844 C 164.609375 272.535156 173.167969 276.882812 182.679688 277.996094 L 182.679688 319.277344 L 47.746094 319.277344 Z M 327.246094 319.285156 L 192.3125 319.285156 L 192.3125 278.1875 C 202.628906 277.496094 211.941406 273.003906 218.84375 266.097656 C 223.929688 261.011719 227.703125 254.609375 229.621094 247.476562 L 258.214844 247.476562 C 277.195312 247.476562 294.449219 255.242188 306.957031 267.753906 C 319.46875 280.265625 327.238281 297.527344 327.238281 316.507812 L 327.238281 319.285156 Z M 327.246094 319.285156 " fill-opacity="1" fill-rule="nonzero"/></g></svg>