<svg xmlns="http://www.w3.org/2000/svg" xmlns:xlink="http://www.w3.org/1999/xlink" width="1920" zoomAndPan="magnify" viewBox="0 0 1440 1336.49996" height="1782" preserveAspectRatio="xMidYMid meet" version="1.0"><defs><clipPath id="d40eed07a8"><path d="M 67.242188 459 L 1439.699219 459 L 1439.699219 1004 L 67.242188 1004 Z M 67.242188 459 " clip-rule="nonzero"/></clipPath><clipPath id="dde1a88a70"><path d="M 20 2 L 1422 2 L 1422 1335.25 L 20 1335.25 Z M 20 2 " clip-rule="nonzero"/></clipPath><clipPath id="ddcaf621fb"><path d="M 0.269531 25 L 1406 25 L 1406 1315 L 0.269531 1315 Z M 0.269531 25 " clip-rule="nonzero"/></clipPath></defs><path fill="#ffffff" d="M 1378.914062 997.191406 C 1378.117188 1014.25 1378.410156 1023.042969 1379.980469 1023.308594 C 1381.074219 1023.574219 1382.40625 1020.378906 1384.246094 1013.714844 C 1391.972656 1031.304688 1397.300781 1039.832031 1400.527344 1039.03125 C 1404.230469 1037.964844 1404.765625 1023.839844 1401.859375 996.128906 C 1394.105469 996.394531 1386.644531 996.660156 1378.914062 997.191406 Z M 5.46875 1061.148438 C 4.136719 1065.679688 2.804688 1072.34375 2.261719 1080.871094 C 1.730469 1092.863281 3.597656 1104.585938 5.46875 1104.585938 C 6.800781 1104.585938 7.0625 1097.660156 12.390625 1089.132812 C 14.527344 1085.933594 16.660156 1083.535156 17.992188 1081.9375 C 20.125 1085.933594 21.71875 1087.796875 22.792969 1087.53125 C 24.652344 1087 24.652344 1078.738281 22.792969 1062.480469 Z M 256.757812 901.257812 C 260.226562 898.859375 264.753906 895.660156 269.300781 891.929688 C 273.832031 887.933594 274.871094 886.601562 274.632812 885.269531 C 274.339844 880.472656 262.089844 877.808594 261.027344 877.539062 C 275.164062 866.347656 278.070312 862.351562 277.535156 861.285156 C 276.496094 859.417969 262.089844 863.417969 254.367188 874.34375 C 248.765625 882.070312 248.234375 890.597656 248.234375 894.863281 C 250.898438 896.992188 253.835938 899.125 256.757812 901.257812 Z M 110.992188 875.140625 C 104.332031 878.871094 98.199219 880.207031 94.203125 880.738281 C 91.007812 882.070312 88.871094 884.734375 88.339844 887.933594 C 87.8125 891.929688 90.203125 895.929688 94.203125 897.527344 L 94.203125 923.644531 C 94.472656 924.175781 97.667969 928.441406 103.527344 928.707031 C 109.660156 928.972656 113.394531 923.910156 113.65625 923.644531 L 113.65625 906.855469 C 119.257812 905.253906 122.183594 902.324219 123.785156 900.457031 C 129.117188 894.0625 129.117188 885.535156 128.84375 871.410156 C 128.84375 866.082031 128.3125 861.816406 128.054688 858.886719 C 125.648438 862.351562 120.589844 869.8125 110.992188 875.140625 Z M 916.316406 174.816406 C 914.210938 172.9375 913.117188 170.816406 912.585938 169.484375 C 912.585938 168.941406 912.078125 165.488281 908.878906 163.082031 C 905.121094 160.6875 901.125 162.019531 900.886719 162.019531 C 898.753906 163.613281 893.664062 166.550781 886.46875 167.351562 C 879.566406 168.152344 874.238281 166.277344 871.8125 165.214844 C 872.34375 168.941406 873.4375 175.605469 878.234375 182.265625 C 880.339844 185.476562 885.429688 192.394531 894.996094 194.53125 C 902.75 196.394531 909.121094 194 911.785156 192.925781 C 912.878906 197.726562 913.917969 202.523438 914.984375 207.050781 C 916.875 207.050781 922.203125 206.523438 926.203125 202.523438 C 931.53125 196.921875 932.066406 187.066406 926.734375 178.539062 C 924.871094 178.8125 920.3125 178.269531 916.316406 174.816406 Z M 1337.925781 1157.617188 L 1331.261719 1002.523438 L 1235.566406 1000.65625 L 1229.703125 1157.351562 L 1245.1875 1262.613281 L 1274.5 1262.613281 L 1270.742188 1147.757812 L 1284.867188 1057.152344 L 1302.988281 1164.011719 L 1327.503906 1248.757812 L 1358.148438 1248.757812 Z M 1143.921875 244.367188 L 1183.601562 169.222656 L 1168.410156 161.5 L 1117.273438 233.179688 L 1042.898438 222.789062 C 1041.324219 222.246094 1026.375 217.1875 1016.246094 224.910156 C 1005.347656 233.449219 1003.191406 255.027344 1017.582031 272.351562 C 1061.816406 272.085938 1105.789062 272.085938 1150.050781 271.820312 L 1226.53125 271.820312 L 1223.335938 249.441406 Z M 96.097656 1119.242188 C 95.828125 1120.578125 93.964844 1129.636719 91.558594 1141.628906 Z M 134.46875 1089.929688 C 138.191406 1123.773438 141.933594 1157.617188 145.65625 1191.460938 L 130.46875 1312.714844 L 105.152344 1312.714844 L 105.152344 1197.324219 C 100.625 1178.9375 95.828125 1160.550781 91.300781 1142.160156 C 85.699219 1171.476562 76.902344 1218.644531 76.902344 1218.644531 L 51.054688 1300.453125 L 22.8125 1300.453125 L 43.058594 1204.519531 L 44.664062 1087.265625 C 56.125 1084.335938 72.644531 1081.136719 92.890625 1082.203125 C 109.953125 1083 124.078125 1086.464844 134.46875 1089.929688 Z M 491.027344 41.570312 C 483.273438 37.304688 477.167969 32.503906 472.878906 28.507812 C 472.078125 29.839844 460.378906 47.960938 468.613281 63.421875 C 469.949219 65.816406 472.078125 69.011719 475.835938 71.945312 C 474.746094 80.214844 473.707031 88.207031 472.878906 96.460938 C 473.171875 96.992188 476.875 104.195312 484.871094 104.984375 C 491.027344 105.789062 497.15625 102.320312 500.355469 96.734375 C 500.0625 89.796875 499.527344 82.605469 499.261719 75.671875 C 501.394531 73.808594 505.683594 69.554688 507.816406 62.621094 C 509.679688 56.757812 509.148438 51.6875 508.589844 49.296875 C 503.523438 47.691406 497.394531 45.296875 491.027344 41.574219 Z M 908.316406 204.386719 C 913.40625 217.453125 918.445312 230.503906 923.535156 243.558594 C 917.644531 245.433594 911.542969 247.296875 905.652344 248.886719 C 881.667969 249.960938 861.949219 251.292969 848.359375 252.355469 C 825.175781 254.21875 804.148438 256.351562 803.855469 254.488281 C 803.855469 253.6875 806.519531 252.625 808.945312 252.097656 C 796.660156 251.554688 790.53125 250.765625 790.53125 249.691406 C 790.292969 247.023438 821.175781 242.226562 883 235.835938 C 885.933594 234.230469 889.425781 232.109375 892.59375 229.171875 C 902.214844 220.117188 906.453125 210.246094 908.316406 204.386719 " fill-opacity="1" fill-rule="nonzero"/><path fill="#000000" d="M 1049.296875 177.742188 C 1036.214844 164.691406 1018.117188 180.410156 996.238281 168.417969 C 977.347656 158.027344 978.144531 139.101562 960.824219 136.179688 C 950.9375 134.574219 949.871094 140.4375 935.507812 141.507812 C 912.296875 143.371094 903.234375 128.714844 888.074219 131.640625 C 880.320312 133.242188 869.660156 139.632812 859.558594 163.617188 L 873.921875 174.277344 C 872.589844 170.824219 872.082031 167.613281 871.789062 165.492188 C 874.214844 166.554688 879.546875 168.417969 886.449219 167.613281 C 893.644531 166.824219 898.734375 163.890625 900.863281 162.285156 C 901.105469 162.027344 905.101562 160.695312 908.859375 163.359375 C 912.058594 165.492188 912.5625 169.21875 912.5625 169.75 C 913.097656 171.082031 914.1875 173.214844 916.292969 175.078125 C 920.292969 178.816406 924.847656 179.078125 926.421875 179.078125 C 929.886719 184.40625 930.949219 190.539062 929.886719 195.597656 L 932.285156 196.398438 C 936.039062 191.339844 941.078125 190.539062 941.078125 190.539062 C 946.167969 190.265625 952.828125 190.808594 956.828125 195.335938 C 959.199219 197.730469 960.023438 200.667969 959.730469 206.800781 L 1013.5625 227.316406 C 1031.148438 231.3125 1047.964844 223.578125 1054.09375 210.253906 C 1059.132812 199.863281 1057.292969 185.738281 1049.296875 177.742188 Z M 882.742188 235.308594 Z M 794.507812 248.894531 C 796.933594 249.164062 801.171875 249.695312 808.925781 249.96875 C 809.699219 249.96875 810.5 250.769531 810.5 251.558594 C 810.5 252.359375 810.257812 252.890625 809.699219 253.433594 C 815.589844 253.164062 825.449219 252.359375 835.28125 251.558594 C 839.574219 251.300781 843.808594 250.769531 848.101562 250.496094 C 866.753906 249.164062 885.914062 247.832031 905.394531 247.03125 L 921.382812 242.230469 L 908.566406 209.191406 C 905.101562 217.1875 900.066406 224.378906 893.644531 229.980469 C 890.738281 232.644531 887.246094 235.039062 883.542969 236.902344 C 883.25 236.902344 882.984375 237.171875 882.984375 237.171875 C 822.492188 243.5625 801.171875 247.03125 794.507812 248.894531 Z M 808.128906 256.886719 C 803.039062 256.886719 801.972656 256.097656 801.703125 254.765625 C 801.703125 254.222656 801.703125 253.691406 801.972656 253.433594 C 789.472656 252.632812 788.378906 251.300781 788.378906 249.695312 C 788.140625 247.03125 788.140625 243.835938 882.210938 233.976562 C 885.40625 232.113281 888.578125 229.980469 891.246094 227.574219 C 898.199219 221.457031 903.527344 213.1875 906.726562 203.863281 C 906.96875 203.058594 907.527344 202.800781 908.300781 202.800781 C 909.097656 202.800781 909.632812 203.332031 909.898438 203.863281 L 925.089844 243.03125 C 925.382812 243.5625 925.382812 244.105469 925.089844 244.367188 C 924.847656 244.894531 924.554688 245.167969 924.046875 245.167969 L 906.195312 250.496094 L 905.632812 250.496094 C 886.207031 251.300781 866.992188 252.359375 848.339844 253.964844 C 843.808594 254.222656 839.574219 254.765625 835.574219 255.023438 C 821.15625 256.097656 812.921875 256.886719 808.128906 256.886719 " fill-opacity="1" fill-rule="nonzero"/><path fill="#ffffff" d="M 577.324219 968.144531 L 1276.050781 968.144531 C 1310.160156 968.144531 1338.4375 940.164062 1338.4375 905.789062 L 1338.4375 318.71875 C 1338.4375 284.609375 1310.453125 256.359375 1276.050781 256.359375 L 226.09375 256.359375 C 192 256.359375 163.75 284.339844 163.75 318.71875 L 163.75 906.054688 C 163.75 940.164062 191.730469 968.414062 226.101562 968.414062 L 512.335938 968.414062 M 577.332031 968.144531 L 540.316406 968.144531 " fill-opacity="1" fill-rule="nonzero"/><path fill="#3e77ac" d="M 472.59375 96.464844 C 462.734375 97.539062 443.28125 101.265625 424.09375 115.121094 C 395.578125 135.636719 386.785156 164.417969 384.414062 173.214844 L 384.414062 223.847656 L 426.757812 245.167969 L 549.34375 245.167969 C 563.757812 236.371094 577.855469 227.574219 592.273438 218.789062 C 590.941406 204.394531 589.316406 190.007812 587.984375 175.351562 C 587.449219 169.75 583.453125 134.046875 552.007812 111.925781 C 530.6875 96.996094 508.328125 96.464844 500.335938 96.738281 C 497.136719 102.597656 491.007812 105.792969 484.851562 104.992188 C 476.589844 104.203125 472.859375 96.996094 472.59375 96.464844 Z M 625.824219 1075.539062 L 828.914062 1075.539062 L 828.914062 950.820312 L 625.824219 950.820312 Z M 1014.894531 222.246094 C 997.574219 213.992188 984.808594 205.199219 976.253906 198.261719 C 961.355469 186.542969 950.164062 174.019531 935.746094 175.882812 C 932.042969 176.414062 928.84375 177.746094 926.953125 178.820312 C 931.511719 184.148438 932.550781 191.601562 929.617188 197.734375 C 926.953125 203.0625 921.382812 206.800781 915.226562 207.058594 C 914.1875 202.261719 913.097656 197.472656 912.058594 192.933594 C 910.191406 193.476562 908.300781 194.007812 906.726562 194.539062 C 906.195312 196.402344 905.632812 199.066406 905.101562 202.804688 C 903.53125 215.054688 901.636719 228.121094 908.566406 236.113281 C 910.191406 237.976562 914.429688 241.703125 923.222656 242.777344 C 924.847656 243.835938 926.714844 245.171875 928.550781 246.230469 C 928.550781 242.234375 928.285156 222.789062 928.550781 208.390625 C 928.84375 192.402344 940.835938 190.539062 940.835938 190.539062 C 945.875 190.269531 952.535156 190.8125 956.535156 195.339844 C 961.0625 199.867188 960.023438 206.257812 956.027344 231.847656 C 953.601562 245.699219 952.269531 253.695312 951.203125 258.496094 C 955.496094 260.628906 960.023438 262.492188 965.0625 264.355469 C 984.007812 271.820312 1001.328125 275.285156 1014.65625 277.148438 C 1017.027344 272.886719 1022.355469 262.765625 1022.117188 248.894531 C 1022.355469 236.375 1017.320312 226.515625 1014.894531 222.246094 Z M 26.496094 338.441406 L 26.496094 584.40625 L 211.972656 584.40625 L 211.972656 403.996094 L 148.546875 338.441406 Z M 1205.433594 882.339844 L 332.15625 882.339844 C 314.59375 882.339844 300.175781 867.949219 300.175781 850.363281 L 300.175781 365.621094 C 300.175781 348.035156 314.59375 333.644531 332.15625 333.644531 L 1205.433594 333.644531 C 1223.019531 333.644531 1237.410156 348.035156 1237.410156 365.621094 L 1237.410156 850.09375 C 1237.410156 867.949219 1223.019531 882.339844 1205.433594 882.339844 " fill-opacity="1" fill-rule="nonzero"/><g clip-path="url(#d40eed07a8)"><path fill="#ffffff" d="M 1439.699219 861.816406 L 1439.699219 488.738281 C 1439.699219 472.480469 1426.617188 459.421875 1410.386719 459.421875 L 865.660156 459.421875 C 849.433594 459.421875 836.347656 472.480469 836.347656 488.738281 L 836.347656 861.816406 C 836.347656 878.074219 849.433594 891.132812 865.660156 891.132812 L 1410.386719 891.132812 C 1426.617188 890.863281 1439.699219 877.808594 1439.699219 861.816406 Z M 499.507812 1003.589844 L 100.070312 1003.589844 C 82.199219 1003.589844 67.542969 988.933594 67.542969 971.078125 L 67.542969 731.503906 C 67.542969 713.652344 82.199219 698.996094 100.0625 698.996094 L 499.5 698.996094 C 517.351562 698.996094 532.007812 713.652344 532.007812 731.503906 L 532.007812 971.078125 C 532.007812 988.933594 517.644531 1003.589844 499.5 1003.589844 " fill-opacity="1" fill-rule="nonzero"/></g><path fill="#ffffff" d="M 490.476562 518.847656 L 362.5625 518.847656 C 352.941406 518.847656 344.945312 510.855469 344.945312 501.261719 L 344.945312 490.070312 C 344.945312 480.476562 352.941406 472.480469 362.5625 472.480469 L 490.476562 472.480469 C 500.042969 472.480469 508.035156 480.476562 508.035156 490.070312 L 508.035156 501.261719 C 508.035156 511.121094 500.042969 518.847656 490.476562 518.847656 Z M 731.644531 807.1875 L 544.011719 807.1875 L 544.011719 778.675781 L 731.644531 778.675781 Z M 816.628906 721.644531 L 544.011719 721.644531 C 543.210938 717.648438 540.8125 708.320312 532.820312 700.058594 C 521.359375 688.070312 506.464844 687.269531 503.238281 687.269531 L 377.457031 687.269531 L 377.457031 664.085938 L 405.199219 664.085938 C 417.964844 643.03125 440.082031 613.71875 473.394531 607.589844 C 518.988281 599.328125 540.308594 643.03125 585.609375 636.105469 C 639.414062 627.574219 647.703125 560.421875 691.378906 562.285156 C 728.421875 563.886719 743.878906 613.1875 780.144531 608.390625 C 796.933594 606.257812 809.460938 593.199219 816.628906 583.339844 Z M 1195.570312 377.613281 C 1195.570312 385.871094 1188.910156 392.535156 1180.675781 392.535156 C 1172.386719 392.535156 1165.726562 385.871094 1165.726562 377.613281 C 1165.726562 369.351562 1172.386719 362.6875 1180.675781 362.6875 C 1188.910156 362.6875 1195.570312 369.351562 1195.570312 377.613281 Z M 1118.292969 362.6875 C 1110.054688 362.6875 1103.394531 369.351562 1103.394531 377.613281 C 1103.394531 385.871094 1110.054688 392.535156 1118.292969 392.535156 C 1126.578125 392.535156 1133.242188 385.871094 1133.242188 377.613281 C 1133.242188 369.351562 1126.578125 362.6875 1118.292969 362.6875 Z M 1064.460938 377.613281 C 1064.460938 385.871094 1057.796875 392.535156 1049.539062 392.535156 C 1041.304688 392.535156 1034.640625 385.871094 1034.640625 377.613281 C 1034.640625 369.351562 1041.304688 362.6875 1049.539062 362.6875 C 1057.796875 362.6875 1064.460938 369.351562 1064.460938 377.613281 " fill-opacity="1" fill-rule="nonzero"/><path fill="#000000" d="M 272.195312 937.5 L 244.496094 937.5 L 244.496094 855.421875 L 272.195312 855.421875 Z M 225.042969 941.765625 L 197.328125 941.765625 L 197.328125 808.785156 L 225.042969 808.785156 Z M 176.011719 940.429688 L 148.289062 940.429688 L 148.289062 839.433594 L 176.011719 839.433594 Z M 1343.222656 794.398438 C 1339.222656 810.121094 1324.273438 822.109375 1306.152344 823.445312 C 1306.152344 820.246094 1306.152344 817.046875 1306.445312 813.582031 C 1306.6875 810.386719 1307.246094 807.453125 1308.019531 804.789062 C 1308.578125 804.257812 1315.480469 798.394531 1314.441406 789.332031 C 1313.613281 783.738281 1310.445312 780.539062 1309.113281 779.207031 C 1307.777344 779.472656 1301.355469 780.539062 1295.492188 776.542969 C 1288.03125 771.746094 1287.257812 763.484375 1286.964844 762.417969 C 1284.59375 763.75 1281.128906 766.148438 1277.640625 769.613281 L 1277.640625 745.628906 C 1279.796875 744.832031 1305.113281 737.101562 1325.339844 753.089844 C 1328.003906 754.957031 1348.792969 771.746094 1343.222656 794.398438 Z M 1086.835938 770.414062 L 1086.835938 684.605469 C 1112.710938 698.726562 1138.558594 712.585938 1164.117188 726.710938 C 1138.265625 741.367188 1112.417969 755.757812 1086.835938 770.414062 Z M 873.40625 607.589844 L 873.40625 855.957031 L 1369.3125 855.957031 L 1369.3125 607.589844 L 873.40625 607.589844 " fill-opacity="1" fill-rule="nonzero"/><path fill="#3e77ac" d="M 506.171875 807.1875 L 417.722656 807.1875 L 417.722656 819.179688 L 506.171875 819.179688 Z M 357.230469 784.003906 C 339.910156 784.003906 325.785156 798.128906 325.785156 815.449219 C 325.785156 832.769531 339.910156 846.894531 357.230469 846.894531 C 374.554688 846.894531 388.652344 832.769531 388.652344 815.449219 C 388.652344 798.128906 374.554688 784.003906 357.230469 784.003906 Z M 223.4375 710.1875 C 217.046875 710.1875 211.984375 715.25 211.984375 721.644531 C 211.984375 728.042969 217.046875 733.105469 223.4375 733.105469 C 229.839844 733.105469 234.898438 728.042969 234.898438 721.644531 C 234.898438 715.25 229.570312 710.1875 223.4375 710.1875 Z M 178.132812 710.1875 C 171.742188 710.1875 166.683594 715.25 166.683594 721.644531 C 166.683594 728.042969 171.742188 733.105469 178.132812 733.105469 C 184.539062 733.105469 189.59375 728.042969 189.59375 721.644531 C 189.59375 715.25 184.265625 710.1875 178.132812 710.1875 Z M 130.707031 709.921875 C 124.304688 709.921875 119.25 714.984375 119.25 721.378906 C 119.25 727.773438 124.304688 732.839844 130.707031 732.839844 C 137.101562 732.839844 142.160156 727.773438 142.160156 721.378906 C 141.898438 714.984375 136.828125 709.921875 130.707031 709.921875 Z M 1318.144531 558.554688 L 971.179688 558.554688 L 971.179688 573.746094 L 1318.144531 573.746094 Z M 1176.375 520.714844 L 971.179688 520.714844 L 971.179688 539.636719 L 1176.375 539.636719 Z M 900.054688 513.785156 C 885.398438 513.785156 873.644531 525.777344 873.644531 540.167969 C 873.644531 554.824219 885.636719 566.550781 900.054688 566.550781 C 914.417969 566.550781 926.410156 554.558594 926.410156 540.167969 C 926.410156 525.777344 914.710938 513.785156 900.054688 513.785156 Z M 512.316406 932.96875 L 335.609375 932.96875 L 335.609375 948.957031 L 512.316406 948.957031 Z M 512.316406 903.125 L 335.609375 903.125 L 335.609375 919.113281 L 512.316406 919.113281 Z M 512.316406 889 L 335.609375 889 L 335.609375 873.011719 L 512.316406 873.011719 L 512.316406 889 " fill-opacity="1" fill-rule="nonzero"/><path fill="#ffffff" d="M 1226.511719 752.824219 C 1244.339844 744.832031 1253.160156 739.765625 1252.332031 737.902344 C 1251.828125 736.570312 1247.535156 736.570312 1239.300781 737.902344 C 1238.503906 714.183594 1236.34375 701.925781 1232.640625 701.394531 C 1228.351562 700.859375 1222.21875 715.25 1213.984375 744.296875 Z M 1289.933594 776.808594 C 1295.503906 780.273438 1301.128906 779.472656 1302.460938 779.207031 C 1303.5 780.273438 1306.695312 783.203125 1307.257812 788.265625 C 1308.296875 796.261719 1301.925781 801.859375 1301.367188 802.390625 C 1300.835938 804.789062 1300.300781 807.453125 1300.035156 810.386719 C 1298.96875 819.980469 1300.59375 828.242188 1302.460938 833.835938 C 1299.5 839.699219 1293.371094 842.097656 1288.601562 840.5 C 1284.3125 838.898438 1282.714844 834.636719 1282.472656 833.835938 L 1282.472656 821.3125 C 1270.988281 821.046875 1265.949219 815.449219 1264.859375 814.117188 C 1255.824219 803.722656 1262.992188 786.136719 1268.324219 777.609375 C 1273.144531 770.144531 1279.277344 765.882812 1282.714844 763.75 C 1282.472656 764.816406 1283.273438 772.542969 1289.933594 776.808594 " fill-opacity="1" fill-rule="nonzero"/><path fill="#ffffff" d="M 426.757812 245.167969 C 414.765625 248.363281 392.914062 256.628906 381.214844 276.878906 C 375.59375 286.738281 373.753906 296.867188 374.261719 332.84375 C 374.554688 351.230469 375.59375 375.214844 377.992188 403.726562 C 390.78125 405.058594 403.308594 406.125 416.097656 407.457031 L 424.625 308.589844 L 491.246094 264.09375 L 550.433594 298.464844 L 552.007812 407.457031 L 592.273438 410.121094 C 595.445312 380.011719 597.84375 353.359375 599.734375 330.976562 C 601.839844 301.929688 602.398438 289.40625 595.976562 275.546875 C 586.941406 255.828125 570.128906 244.894531 559.46875 239.308594 L 549.34375 245.167969 Z M 957.066406 195.335938 C 961.597656 200.136719 960.53125 206.253906 956.535156 231.84375 C 952.03125 259.824219 951.203125 263.550781 946.941406 267.289062 C 941.078125 272.347656 932.84375 272.082031 916.558594 271.550781 C 889.644531 270.484375 884.074219 263.820312 862.757812 265.957031 C 855.800781 266.757812 847.007812 268.347656 846.769531 267.289062 C 846.472656 266.488281 851.003906 264.351562 855.003906 262.761719 C 835.015625 260.886719 824.914062 259.292969 824.914062 257.960938 C 824.914062 256.628906 836.613281 255.828125 860.09375 255.296875 L 929.085938 247.03125 C 929.085938 247.03125 928.84375 224.652344 929.085938 208.660156 C 929.378906 192.671875 941.371094 190.808594 941.371094 190.808594 C 946.40625 190.539062 953.070312 191.066406 957.066406 195.335938 " fill-opacity="1" fill-rule="nonzero"/><path fill="#000000" d="M 1038.105469 364.554688 C 1030.882812 364.554688 1025.019531 370.417969 1025.019531 377.613281 C 1025.019531 384.808594 1030.882812 390.667969 1038.105469 390.667969 C 1045.300781 390.667969 1051.136719 384.808594 1051.136719 377.613281 C 1051.429688 370.417969 1045.300781 364.554688 1038.105469 364.554688 Z M 1038.105469 394.398438 C 1028.777344 394.398438 1021.316406 386.9375 1021.316406 377.613281 C 1021.316406 368.285156 1028.777344 360.824219 1038.105469 360.824219 C 1047.433594 360.824219 1054.867188 368.285156 1054.867188 377.613281 C 1054.867188 386.9375 1047.433594 394.398438 1038.105469 394.398438 " fill-opacity="1" fill-rule="nonzero"/><path fill="#000000" d="M 1106.832031 364.554688 C 1099.636719 364.554688 1093.773438 370.417969 1093.773438 377.613281 C 1093.773438 384.808594 1099.636719 390.667969 1106.832031 390.667969 C 1114.054688 390.667969 1119.917969 384.808594 1119.917969 377.613281 C 1120.15625 370.417969 1114.054688 364.554688 1106.832031 364.554688 Z M 1106.832031 394.398438 C 1097.503906 394.398438 1090.070312 386.9375 1090.070312 377.613281 C 1090.070312 368.285156 1097.503906 360.824219 1106.832031 360.824219 C 1116.160156 360.824219 1123.621094 368.285156 1123.621094 377.613281 C 1123.621094 386.9375 1116.160156 394.398438 1106.832031 394.398438 " fill-opacity="1" fill-rule="nonzero"/><path fill="#000000" d="M 1169.214844 364.554688 C 1162.019531 364.554688 1156.132812 370.417969 1156.132812 377.613281 C 1156.132812 384.808594 1162.019531 390.667969 1169.214844 390.667969 C 1176.386719 390.667969 1182.246094 384.808594 1182.246094 377.613281 C 1182.539062 370.417969 1176.679688 364.554688 1169.214844 364.554688 Z M 1169.214844 394.398438 C 1159.890625 394.398438 1152.402344 386.9375 1152.402344 377.613281 C 1152.402344 368.285156 1159.890625 360.824219 1169.214844 360.824219 C 1178.542969 360.824219 1186.003906 368.285156 1186.003906 377.613281 C 1186.003906 386.9375 1178.542969 394.398438 1169.214844 394.398438 " fill-opacity="1" fill-rule="nonzero"/><g clip-path="url(#dde1a88a70)"><path fill="#000000" d="M 1234.210938 970.011719 C 1234.210938 968.945312 1234.210938 967.613281 1234.503906 966.546875 L 828.621094 966.546875 C 828.621094 967.613281 828.621094 968.945312 828.351562 970.011719 L 830.777344 970.011719 C 831.019531 971.078125 831.285156 971.875 831.578125 972.941406 L 845.675781 972.941406 L 845.675781 1094.195312 L 646.078125 1094.195312 L 646.078125 1077.9375 C 645.039062 1077.9375 643.703125 1077.671875 642.613281 1077.671875 L 642.613281 1096.058594 C 642.613281 1097.125 643.410156 1097.925781 644.476562 1097.925781 L 847.566406 1097.925781 C 848.605469 1097.925781 849.433594 1097.125 849.433594 1096.058594 L 849.433594 971.34375 C 849.433594 970.8125 849.140625 970.542969 848.898438 970.277344 L 1234.210938 970.277344 Z M 1244.871094 1262.613281 C 1218.757812 1271.140625 1205.992188 1277.269531 1206.523438 1280.734375 C 1207.324219 1285.265625 1229.976562 1286.066406 1274.480469 1282.601562 C 1274.1875 1275.9375 1274.1875 1269.277344 1273.945312 1262.613281 Z M 1303.257812 779.472656 C 1304.296875 780.539062 1307.496094 783.472656 1308.03125 788.535156 C 1309.121094 796.527344 1302.699219 802.125 1302.167969 802.65625 C 1301.632812 805.054688 1301.128906 807.722656 1300.835938 810.652344 C 1300.59375 813.851562 1300.59375 816.78125 1300.59375 819.710938 C 1317.117188 818.648438 1330.679688 807.722656 1334.4375 793.332031 C 1339.476562 772.8125 1320.582031 757.621094 1318.15625 755.488281 C 1299.796875 740.832031 1276.851562 748.027344 1274.71875 748.828125 L 1274.71875 770.679688 C 1277.941406 767.480469 1281.140625 765.347656 1282.980469 764.285156 C 1282.980469 765.347656 1283.804688 772.8125 1290.707031 777.339844 C 1296.304688 780.539062 1301.925781 779.738281 1303.257812 779.472656 Z M 548.007812 922.578125 C 546.96875 922.578125 546.144531 923.375 546.144531 924.441406 C 546.144531 925.507812 546.96875 926.308594 548.007812 926.308594 L 1232.347656 926.308594 C 1245.671875 926.308594 1257.957031 920.445312 1266.484375 910.050781 C 1266.992188 909.253906 1266.992188 908.1875 1266.191406 907.652344 C 1265.390625 907.121094 1264.324219 907.121094 1263.820312 907.921875 C 1256.066406 917.511719 1244.632812 922.84375 1232.640625 922.84375 L 548.007812 922.84375 Z M 828.914062 950.824219 L 625.824219 950.824219 L 727.355469 1007.851562 Z M 331.355469 880.472656 L 504.570312 880.472656 L 504.570312 867.945312 L 331.355469 867.945312 Z M 327.917969 882.335938 L 327.917969 866.347656 C 327.917969 865.28125 328.691406 864.484375 329.785156 864.484375 L 506.464844 864.484375 C 507.503906 864.484375 508.328125 865.28125 508.328125 866.347656 L 508.328125 882.335938 C 508.328125 883.402344 507.503906 884.203125 506.464844 884.203125 L 329.785156 884.203125 C 328.691406 884.203125 327.917969 883.402344 327.917969 882.335938 Z M 1164.125 515.652344 L 962.394531 515.652344 L 962.394531 531.109375 L 1164.125 531.109375 Z M 1167.589844 512.1875 L 1167.589844 534.574219 L 958.933594 534.574219 L 958.933594 512.1875 Z M 1326.683594 1248.757812 C 1306.695312 1266.609375 1297.929688 1277.269531 1300.300781 1280.734375 C 1303.257812 1285.265625 1322.6875 1279.136719 1358.929688 1262.613281 C 1357.597656 1258.082031 1356.261719 1253.285156 1354.929688 1248.757812 Z M 331.355469 940.699219 L 504.570312 940.699219 L 504.570312 928.171875 L 331.355469 928.171875 Z M 327.917969 926.308594 C 327.917969 925.242188 328.691406 924.441406 329.785156 924.441406 L 506.464844 924.441406 C 507.503906 924.441406 508.328125 925.242188 508.328125 926.308594 L 508.328125 942.296875 C 508.328125 943.363281 507.503906 944.164062 506.464844 944.164062 L 329.785156 944.164062 C 328.691406 944.164062 327.917969 943.363281 327.917969 942.296875 Z M 1358.929688 905.789062 L 1338.4375 905.789062 C 1338.675781 906.855469 1338.4375 908.1875 1337.902344 909.253906 L 1360.261719 909.253906 C 1359.460938 908.453125 1359.222656 907.652344 1359.222656 906.585938 C 1359.222656 906.320312 1358.929688 906.054688 1358.929688 905.789062 Z M 331.355469 910.585938 L 504.570312 910.585938 L 504.570312 898.058594 L 331.355469 898.058594 Z M 327.917969 896.460938 C 327.917969 895.394531 328.691406 894.597656 329.785156 894.597656 L 506.464844 894.597656 C 507.503906 894.597656 508.328125 895.394531 508.328125 896.460938 L 508.328125 912.449219 C 508.328125 913.515625 507.503906 914.316406 506.464844 914.316406 L 329.785156 914.316406 C 328.691406 914.316406 327.917969 913.515625 327.917969 912.449219 Z M 816.628906 880.472656 C 815.589844 876.742188 815.027344 873.011719 815.027344 869.011719 L 815.027344 610.519531 C 804.371094 623.3125 792.9375 630.773438 780.386719 632.371094 C 760.664062 635.039062 746.835938 622.246094 733.511719 609.988281 C 721.226562 598.796875 708.699219 587.070312 691.671875 586.539062 C 671.125 585.738281 658.601562 600.925781 644.476562 618.515625 C 630.378906 636.105469 614.097656 656.089844 586.410156 660.355469 C 563.464844 664.085938 546.144531 654.757812 529.648438 645.695312 C 512.566406 636.371094 496.335938 627.84375 473.925781 631.839844 C 449.410156 636.371094 427.558594 654.226562 408.398438 685.402344 L 503.507812 685.402344 C 526.984375 685.402344 546.144531 704.589844 546.144531 728.042969 L 546.144531 880.738281 L 816.628906 880.738281 Z M 542.441406 729.90625 C 542.441406 707.253906 524.027344 688.867188 501.375 688.867188 L 122.964844 688.867188 C 100.0625 688.867188 81.40625 707.523438 81.40625 730.441406 L 81.40625 754.421875 L 542.429688 754.421875 Z M 225.5625 599.0625 L 225.5625 421.050781 L 224.757812 420.25 L 163.738281 420.25 L 163.738281 357.09375 L 162.9375 356.292969 L 43.546875 356.292969 L 43.546875 598.796875 L 225.5625 598.796875 Z M 1421.554688 514.320312 L 1421.554688 869.011719 C 1421.554688 886.601562 1410.09375 901.523438 1394.398438 907.121094 C 1394.636719 905.789062 1394.636719 904.722656 1394.105469 903.390625 C 1407.960938 898.058594 1418.089844 884.734375 1418.089844 869.011719 L 1418.089844 514.320312 C 1418.089844 494.066406 1401.566406 477.542969 1381.3125 477.542969 L 855.269531 477.542969 C 835.015625 477.542969 818.492188 494.066406 818.492188 514.320312 L 818.492188 869.011719 C 818.492188 889.265625 835.015625 905.789062 855.269531 905.789062 L 1233.679688 905.789062 C 1233.171875 906.855469 1233.171875 908.1875 1233.414062 909.253906 L 855.269531 909.253906 C 838.242188 909.253906 823.582031 898.59375 817.695312 883.667969 C 817.453125 883.9375 817.160156 883.9375 816.628906 883.9375 L 545.878906 883.9375 L 545.878906 948.960938 C 545.878906 955.089844 544.546875 960.949219 542.441406 966.28125 L 625.289062 966.28125 C 625.050781 967.347656 625.050781 968.679688 625.050781 969.746094 L 540.816406 969.746094 C 533.351562 983.867188 518.695312 993.195312 501.667969 993.195312 L 136.820312 993.195312 C 135.769531 993.195312 134.964844 992.394531 134.964844 991.332031 C 134.964844 990.265625 135.769531 989.464844 136.828125 989.464844 L 501.382812 989.464844 C 524.035156 989.464844 542.449219 971.078125 542.449219 948.425781 L 542.449219 757.355469 L 81.425781 757.355469 L 81.414062 848.761719 C 86.476562 845.296875 93.136719 841.832031 101.402344 840.230469 C 121.386719 837.035156 135.777344 847.425781 138.441406 849.292969 L 128.84375 866.613281 L 128.582031 866.882812 C 128.3125 863.417969 128.050781 860.484375 127.78125 858.085938 C 125.648438 861.816406 120.316406 869.28125 110.992188 874.609375 C 104.328125 878.339844 98.195312 879.671875 94.199219 880.207031 C 91.003906 881.539062 88.871094 884.203125 88.339844 887.402344 C 87.808594 891.398438 90.203125 895.394531 94.199219 896.992188 L 94.199219 910.050781 C 91.535156 908.71875 86.203125 905.523438 81.144531 900.191406 L 81.144531 922.84375 C 81.144531 923.910156 80.34375 924.707031 79.285156 924.707031 C 78.210938 924.707031 77.417969 923.910156 77.417969 922.84375 L 77.417969 900.726562 C 77.417969 899.660156 78.210938 898.859375 79.285156 898.859375 C 79.542969 898.859375 79.8125 898.859375 80.082031 899.125 C 78.480469 897.261719 76.878906 895.128906 75.285156 892.464844 C 66.21875 877.273438 69.683594 861.816406 70.757812 858.351562 C 71.820312 857.019531 74.210938 854.089844 77.953125 850.890625 C 77.679688 850.625 77.417969 850.09375 77.417969 849.824219 L 77.417969 729.375 C 77.417969 704.855469 97.40625 684.871094 121.921875 684.871094 L 162.152344 684.871094 L 162.152344 602.261719 L 41.703125 602.261719 C 40.644531 602.261719 39.839844 601.460938 39.839844 600.394531 L 39.839844 354.425781 C 39.839844 353.359375 40.644531 352.5625 41.703125 352.5625 L 163.757812 352.5625 C 164.289062 352.5625 164.558594 352.828125 165.089844 353.09375 L 228.515625 418.652344 C 228.773438 418.917969 229.046875 419.449219 229.046875 419.984375 L 229.046875 600.394531 C 229.046875 601.460938 228.246094 602.261719 227.183594 602.261719 L 165.621094 602.261719 L 165.621094 684.871094 L 298.320312 684.871094 L 298.320312 374.679688 C 298.320312 351.230469 317.507812 332.042969 340.957031 332.042969 L 374.269531 332.042969 C 374.269531 333.109375 374.5625 334.441406 374.800781 335.507812 L 342.023438 335.507812 C 319.933594 335.507812 301.8125 353.628906 301.8125 375.746094 L 301.8125 418.652344 L 345.246094 418.652344 C 353.242188 414.917969 366.273438 410.121094 384.421875 404.261719 C 392.921875 405.058594 401.210938 405.859375 409.738281 406.660156 C 409.203125 411.722656 408.910156 416.785156 408.40625 421.847656 C 408.644531 420.78125 408.910156 419.714844 409.203125 418.652344 L 556.546875 418.652344 L 556.546875 407.722656 C 565.871094 408.257812 575.199219 409.058594 584.527344 409.589844 C 600.515625 414.386719 611.972656 418.117188 618.929688 421.316406 C 617.597656 420.25 616.265625 419.449219 614.398438 418.652344 L 1235.3125 418.652344 L 1235.3125 375.746094 C 1235.3125 353.628906 1217.191406 335.507812 1195.046875 335.507812 L 599.984375 335.507812 C 600.277344 334.441406 600.277344 333.109375 600.277344 332.042969 L 1197.710938 332.042969 C 1220.65625 332.042969 1239.3125 350.695312 1239.3125 373.613281 L 1239.3125 459.421875 C 1239.3125 460.488281 1238.511719 461.289062 1237.417969 461.289062 C 1236.351562 461.289062 1235.554688 460.488281 1235.554688 459.421875 L 1235.554688 422.382812 L 621.0625 422.382812 C 625.058594 424.511719 627.164062 426.113281 626.925781 427.445312 C 626.097656 431.976562 602.648438 432.507812 556.546875 429.578125 L 556.546875 422.382812 L 408.40625 422.382812 C 408.40625 423.445312 408.113281 424.511719 408.113281 425.578125 C 360.4375 430.640625 336.160156 431.175781 335.121094 426.644531 C 334.828125 425.578125 336.160156 424.246094 338.585938 422.382812 L 301.515625 422.382812 L 301.515625 685.671875 L 403.582031 685.671875 C 423.570312 652.625 446.753906 633.4375 472.867188 628.640625 C 496.585938 624.378906 513.90625 633.707031 530.695312 642.765625 C 547.484375 651.828125 563.207031 660.355469 585.085938 656.890625 C 611.441406 652.625 626.632812 634.238281 641.046875 616.117188 C 655.144531 598.527344 668.734375 582.007812 691.121094 582.804688 C 709.535156 583.605469 722.566406 595.597656 735.359375 607.324219 C 748.976562 619.582031 761.5 631.308594 779.621094 628.910156 C 792.144531 627.308594 803.84375 619.046875 814.796875 604.925781 L 814.796875 514.320312 C 814.796875 492.199219 832.917969 474.078125 855.011719 474.078125 L 1272.328125 474.078125 L 1272.328125 332.574219 C 1272.328125 310.191406 1254.207031 292.070312 1231.847656 292.070312 L 601.847656 292.070312 C 601.847656 291.003906 601.609375 289.671875 601.316406 288.605469 L 1232.355469 288.605469 C 1235.019531 288.605469 1237.683594 288.871094 1240.082031 289.40625 C 1236.644531 286.738281 1231.847656 279.011719 1225.691406 266.488281 C 1224.894531 260.886719 1224.09375 255.023438 1223.320312 249.4375 L 1243.839844 249.4375 C 1247.011719 274.746094 1246.746094 288.339844 1243.308594 290.203125 C 1262.203125 295 1276.058594 312.320312 1276.058594 332.574219 L 1276.058594 474.078125 L 1381.320312 474.078125 C 1403.734375 474.078125 1421.5625 492.199219 1421.5625 514.320312 Z M 152.570312 1321.242188 C 146.96875 1319.910156 139.503906 1317.511719 130.71875 1312.445312 L 105.402344 1312.445312 L 105.402344 1335.097656 C 125.921875 1335.097656 146.707031 1334.832031 167.226562 1334.832031 C 167.226562 1332.699219 166.953125 1329.769531 165.363281 1327.371094 C 162.425781 1322.839844 157.097656 1322.308594 152.570312 1321.242188 Z M 962.394531 564.953125 L 1305.925781 564.953125 L 1305.925781 553.226562 L 962.394531 553.226562 Z M 958.933594 550.027344 L 1309.363281 550.027344 L 1309.363281 568.683594 L 958.933594 568.683594 Z M 469.929688 65.820312 C 469.394531 65.019531 468.863281 64.230469 468.597656 63.429688 C 460.363281 47.96875 472.0625 29.847656 472.859375 28.515625 C 477.390625 32.511719 483.253906 37.3125 491.007812 41.578125 C 497.378906 45.035156 503.507812 47.441406 508.328125 49.03125 C 508.835938 51.695312 509.128906 56.765625 507.503906 62.355469 C 506.171875 66.625 504.039062 70.089844 502.175781 72.484375 C 504.574219 71.152344 521.652344 61.292969 524.320312 41.578125 C 525.652344 31.179688 524.027344 11.464844 508.835938 4.800781 C 497.910156 0.00390625 483.8125 3.46875 473.925781 13.597656 C 471.820312 13.054688 459.828125 11.191406 451.835938 18.386719 C 441.175781 27.984375 443.546875 47.441406 453.40625 57.570312 C 459.269531 63.429688 466.492188 65.292969 469.929688 65.824219 Z M 424.09375 335.507812 L 551.207031 335.507812 L 551.207031 332.042969 L 424.625 332.042969 C 424.625 333.109375 424.386719 334.441406 424.09375 335.507812 Z M 1276.050781 258.21875 C 1309.363281 258.21875 1336.570312 285.40625 1336.570312 318.71875 L 1336.570312 460.222656 L 1340.007812 460.222656 L 1340.007812 318.71875 C 1340.007812 283.542969 1311.253906 254.765625 1276.050781 254.765625 L 1244.632812 254.765625 C 1244.871094 255.828125 1244.871094 257.160156 1244.871094 258.21875 Z M 1228.644531 156.167969 C 1228.351562 152.699219 1210.761719 150.566406 1175.585938 149.761719 L 1170.257812 162.558594 L 1183.582031 169.21875 C 1213.988281 163.890625 1228.882812 159.363281 1228.644531 156.167969 Z M 586.410156 257.429688 C 586.648438 257.691406 586.648438 257.960938 586.941406 258.21875 L 779.613281 258.21875 L 785.980469 272.347656 L 862.464844 272.347656 L 862.464844 266.488281 L 852.097656 264.351562 L 790.804688 264.351562 L 760.960938 194.003906 L 750.832031 194.003906 L 777.722656 254.496094 L 584.519531 254.496094 C 585.316406 255.554688 585.851562 256.359375 586.410156 257.429688 Z M 549.34375 245.167969 L 559.46875 174.277344 L 416.097656 174.277344 L 426.757812 245.167969 Z M 68.625 1312.445312 C 64.097656 1310.847656 57.695312 1307.382812 51.304688 1300.453125 L 22.792969 1300.453125 L 20.386719 1323.90625 C 41.445312 1326.039062 62.222656 1328.4375 83.285156 1330.566406 C 83.542969 1326.835938 83.542969 1322.039062 80.347656 1318.308594 C 77.152344 1314.578125 73.421875 1314.046875 68.628906 1312.445312 Z M 165.621094 318.71875 C 165.621094 285.40625 192.800781 258.21875 226.113281 258.21875 L 396.417969 258.21875 C 397.988281 256.886719 399.320312 255.828125 401.210938 254.765625 L 226.113281 254.765625 C 190.9375 254.765625 162.15625 283.542969 162.15625 318.71875 L 162.15625 351.496094 C 163.488281 352.027344 164.5625 352.828125 165.621094 353.894531 Z M 255.425781 332.84375 L 255.425781 683.273438 C 255.425781 684.335938 256.226562 685.136719 257.300781 685.136719 C 258.363281 685.136719 259.164062 684.335938 259.164062 683.273438 L 259.164062 332.84375 C 259.164062 310.457031 277.296875 292.335938 299.65625 292.335938 L 375.898438 292.335938 C 376.136719 291.269531 376.429688 289.9375 376.667969 288.871094 L 299.65625 288.871094 C 275.164062 288.871094 255.425781 308.589844 255.425781 332.84375 Z M 534.703125 290.46875 C 534.703125 291.003906 534.464844 291.804688 534.464844 292.335938 L 452.386719 292.335938 C 453.71875 291.269531 455.050781 290.203125 456.089844 288.871094 L 532.570312 288.871094 C 533.132812 289.40625 533.90625 289.9375 534.703125 290.46875 Z M 550.160156 332.042969 L 424.113281 332.042969 L 424.113281 335.507812 L 549.894531 335.507812 C 549.894531 334.441406 549.894531 333.109375 550.160156 332.042969 Z M 202.929688 557.222656 L 202.929688 554.027344 C 202.929688 551.359375 200.792969 549.230469 198.128906 549.230469 L 69.683594 549.230469 C 67.019531 549.230469 64.886719 551.359375 64.886719 554.027344 L 64.886719 557.222656 C 64.886719 559.886719 67.019531 562.019531 69.683594 562.019531 L 198.128906 562.019531 C 200.792969 562.019531 202.929688 559.886719 202.929688 557.222656 Z M 202.929688 522.3125 L 202.929688 519.117188 C 202.929688 516.449219 200.792969 514.320312 198.128906 514.320312 L 69.683594 514.320312 C 67.019531 514.320312 64.886719 516.449219 64.886719 519.117188 L 64.886719 522.3125 C 64.886719 524.980469 67.019531 527.109375 69.683594 527.109375 L 198.128906 527.109375 C 200.792969 527.378906 202.929688 524.980469 202.929688 522.3125 Z M 202.929688 487.671875 L 202.929688 484.472656 C 202.929688 481.808594 200.792969 479.675781 198.128906 479.675781 L 69.683594 479.675781 C 67.019531 479.675781 64.886719 481.808594 64.886719 484.472656 L 64.886719 487.671875 C 64.886719 490.335938 67.019531 492.46875 69.683594 492.46875 L 198.128906 492.46875 C 200.792969 492.734375 202.929688 490.335938 202.929688 487.671875 Z M 202.929688 456.226562 L 202.929688 453.027344 C 202.929688 450.363281 200.792969 448.230469 198.128906 448.230469 L 69.683594 448.230469 C 67.019531 448.230469 64.886719 450.363281 64.886719 453.027344 L 64.886719 456.226562 C 64.886719 458.890625 67.019531 461.023438 69.683594 461.023438 L 198.128906 461.023438 C 200.792969 461.023438 202.929688 458.890625 202.929688 456.226562 Z M 132.582031 405.058594 L 69.683594 405.058594 C 67.019531 405.058594 64.886719 402.929688 64.886719 400.261719 L 64.886719 397.066406 C 64.886719 394.398438 67.019531 392.269531 69.683594 392.269531 L 132.308594 392.269531 C 134.972656 392.269531 137.109375 394.398438 137.109375 397.066406 L 137.109375 400.261719 C 137.378906 402.660156 135.246094 405.058594 132.582031 405.058594 " fill-opacity="1" fill-rule="nonzero"/></g><g clip-path="url(#ddcaf621fb)"><path fill="#000000" d="M 594.9375 275.8125 C 588.515625 261.429688 576.789062 249.695312 560 240.898438 L 550.96875 246.5 C 550.675781 246.773438 550.433594 246.773438 550.140625 246.773438 L 427.851562 246.773438 C 413.433594 250.769531 394.246094 259.550781 383.585938 277.679688 C 378.257812 287.007812 376.417969 296.867188 376.925781 332.84375 C 377.21875 355.757812 378.550781 378.945312 380.417969 402.128906 L 415.300781 405.59375 L 423.558594 308.589844 C 423.558594 308.058594 423.851562 307.527344 424.386719 307.257812 L 491.007812 262.761719 C 491.515625 262.488281 492.339844 262.488281 492.847656 262.761719 L 552.007812 297.132812 C 552.539062 297.398438 552.804688 297.933594 552.804688 298.730469 L 554.433594 405.859375 L 591.179688 408.257812 C 594.113281 382.410156 596.511719 356.292969 598.402344 330.710938 C 600.773438 300.863281 601.066406 289.40625 594.9375 275.8125 Z M 598.109375 274.480469 C 604.503906 288.605469 604.265625 300.597656 601.839844 330.710938 C 599.734375 356.824219 597.308594 383.742188 594.40625 410.121094 C 594.40625 410.921875 593.605469 411.722656 592.511719 411.722656 L 552.300781 409.058594 C 551.472656 409.058594 550.675781 408.257812 550.675781 407.457031 L 549.101562 299.53125 L 491.808594 266.214844 L 426.757812 309.65625 L 418.523438 407.722656 C 418.523438 408.257812 418.230469 408.523438 417.964844 408.789062 C 417.722656 409.058594 417.191406 409.324219 416.632812 409.058594 L 378.550781 405.328125 C 377.75 405.328125 376.925781 404.527344 376.925781 403.726562 C 374.792969 380.011719 373.753906 356.292969 373.222656 332.84375 C 372.660156 296.066406 374.554688 285.941406 380.417969 275.8125 C 391.582031 256.628906 411.863281 247.5625 426.757812 243.304688 L 549.34375 243.304688 L 558.960938 237.445312 C 559.46875 237.171875 560 237.171875 560.800781 237.445312 C 578.65625 246.5 591.179688 259.023438 598.109375 274.480469 Z M 278.859375 860.21875 C 278.324219 859.417969 277.527344 858.886719 276.191406 858.886719 L 275.953125 858.886719 C 271.15625 858.886719 259.683594 863.683594 252.492188 873.277344 C 247.164062 880.738281 246.089844 889.265625 246.089844 894.863281 C 246.089844 895.929688 246.890625 896.726562 247.960938 896.460938 C 249.023438 896.460938 249.828125 895.660156 249.554688 894.59375 C 249.554688 889.53125 250.355469 881.804688 255.15625 875.140625 C 261.015625 866.882812 270.863281 862.882812 274.621094 862.351562 C 273.289062 863.949219 269.53125 867.679688 259.414062 875.675781 C 258.882812 876.207031 258.621094 876.742188 258.882812 877.539062 C 259.152344 878.074219 259.683594 878.605469 260.214844 878.871094 C 266.074219 880.207031 272.195312 882.871094 272.488281 885.003906 C 272.488281 885.800781 271.15625 887.402344 267.664062 890.332031 C 263.679688 893.796875 259.683594 896.726562 255.414062 899.660156 C 254.625 900.191406 254.355469 901.257812 254.886719 902.058594 C 255.15625 902.589844 255.6875 902.855469 256.21875 902.855469 C 256.488281 902.855469 257.019531 902.855469 257.289062 902.589844 C 261.546875 899.660156 265.816406 896.460938 269.824219 892.996094 C 274.328125 889 275.953125 887.132812 275.953125 885.003906 C 275.660156 880.472656 269.292969 877.808594 264.484375 876.472656 C 279.65625 864.484375 279.949219 862.085938 278.859375 860.21875 Z M 1224.886719 249.164062 C 1224.886719 248.363281 1224.085938 247.832031 1223.3125 247.5625 L 1146.566406 242.773438 L 1184.914062 170.019531 C 1185.207031 169.492188 1185.207031 169.21875 1184.914062 168.6875 C 1184.671875 168.160156 1184.378906 167.886719 1184.113281 167.613281 L 1168.921875 159.890625 C 1168.125 159.621094 1167.351562 159.621094 1166.792969 160.421875 L 1116.425781 231.3125 L 1043.140625 221.183594 C 1042.101562 220.910156 1041.304688 221.714844 1041.304688 222.789062 C 1041.011719 223.847656 1041.808594 224.652344 1042.875 224.652344 L 1117.25 235.039062 C 1118.050781 235.039062 1118.585938 234.78125 1118.824219 234.238281 L 1168.921875 163.890625 L 1181.207031 170.019531 L 1142.808594 242.503906 L 1072.1875 235.039062 C 1071.121094 235.039062 1070.324219 235.570312 1070.324219 236.644531 C 1070.324219 237.703125 1070.855469 238.503906 1071.949219 238.503906 L 1143.898438 245.96875 L 1221.980469 251.027344 L 1224.644531 269.949219 L 1150.269531 269.949219 L 1017.824219 270.484375 C 1016.785156 270.484375 1015.988281 271.285156 1015.988281 272.347656 C 1015.988281 273.414062 1016.785156 274.214844 1017.824219 274.214844 L 1150.269531 273.683594 L 1226.75 273.683594 C 1227.3125 273.683594 1227.84375 273.414062 1228.082031 273.148438 C 1228.351562 272.882812 1228.644531 272.347656 1228.644531 271.816406 Z M 1282.472656 1056.621094 Z M 1339.476562 1157.617188 L 1359.222656 1248.222656 C 1359.222656 1248.757812 1359.222656 1249.289062 1358.929688 1249.824219 C 1358.660156 1250.355469 1358.128906 1250.355469 1357.597656 1250.355469 L 1326.949219 1250.355469 C 1326.152344 1250.355469 1325.351562 1249.824219 1325.351562 1249.023438 L 1300.835938 1164.28125 L 1284.605469 1067.8125 L 1272.320312 1147.757812 L 1276.050781 1262.347656 C 1276.050781 1262.878906 1275.8125 1263.414062 1275.519531 1263.679688 C 1275.277344 1263.945312 1274.71875 1264.210938 1274.1875 1264.210938 L 1244.871094 1264.210938 C 1244.074219 1264.210938 1243.300781 1263.679688 1243.007812 1262.613281 L 1227.550781 1157.351562 L 1233.171875 1000.390625 C 1233.171875 999.324219 1233.972656 998.792969 1235.011719 998.792969 C 1236.078125 998.792969 1236.636719 999.589844 1236.636719 1000.65625 L 1230.75 1157.351562 L 1245.964844 1261.015625 L 1271.8125 1261.015625 L 1268.054688 1148.023438 L 1282.179688 1057.152344 L 1282.179688 1031.035156 C 1282.179688 1029.972656 1282.980469 1029.171875 1284.046875 1029.171875 C 1285.136719 1029.171875 1285.9375 1029.972656 1285.9375 1031.035156 L 1285.9375 1057.152344 L 1285.9375 1056.886719 C 1285.9375 1056.351562 1285.644531 1056.085938 1285.378906 1055.820312 L 1285.9375 1056.886719 L 1285.9375 1057.417969 L 1285.9375 1056.886719 L 1304.03125 1163.480469 L 1328.015625 1246.890625 L 1355.222656 1246.890625 L 1336.011719 1158.152344 L 1329.347656 1002.789062 C 1329.347656 1001.722656 1330.148438 1000.925781 1330.949219 1000.925781 C 1332.011719 1000.925781 1332.8125 1001.722656 1332.8125 1002.523438 Z M 1403.726562 995.859375 C 1403.726562 994.792969 1402.632812 994.261719 1401.859375 994.261719 C 1400.765625 994.261719 1400.234375 995.328125 1400.234375 996.128906 C 1403.964844 1033.167969 1400.765625 1036.898438 1400.234375 1037.164062 C 1399.96875 1037.164062 1396.53125 1036.632812 1385.871094 1012.914062 C 1385.578125 1012.117188 1384.777344 1011.851562 1384.246094 1011.851562 C 1383.445312 1011.851562 1382.914062 1012.382812 1382.644531 1013.183594 C 1381.875 1016.113281 1381.074219 1018.246094 1380.539062 1019.578125 C 1380.246094 1016.648438 1379.980469 1010.515625 1380.78125 997.460938 C 1380.78125 996.394531 1379.980469 995.59375 1379.207031 995.59375 C 1378.117188 995.328125 1377.316406 996.394531 1377.316406 997.191406 C 1375.984375 1024.375 1377.875 1024.640625 1379.742188 1024.90625 C 1381.3125 1025.175781 1382.644531 1024.109375 1384.539062 1018.511719 C 1393.066406 1037.164062 1397.0625 1040.898438 1399.96875 1040.898438 L 1400.765625 1040.898438 C 1404.523438 1039.832031 1407.429688 1033.703125 1403.726562 995.859375 Z M 956.027344 196.667969 C 953.070312 193.472656 948.273438 192.140625 941.609375 192.398438 C 940.542969 192.667969 931.21875 194.804688 930.949219 208.660156 C 930.710938 224.648438 930.949219 246.769531 930.949219 247.027344 C 930.949219 247.828125 930.417969 248.632812 929.378906 248.890625 L 860.332031 257.15625 C 844.902344 257.429688 836.347656 257.960938 831.816406 258.488281 C 835.816406 259.292969 843.011719 260.09375 855.269531 261.425781 C 856.09375 261.425781 856.601562 262.214844 856.894531 263.015625 C 856.894531 263.820312 856.601562 264.621094 855.800781 264.878906 C 855.003906 265.152344 853.9375 265.683594 853.429688 265.953125 C 854.46875 265.953125 855.269531 265.683594 856.335938 265.683594 C 858.464844 265.421875 860.597656 265.152344 862.757812 264.878906 C 865.929688 264.621094 868.59375 264.347656 871.257812 264.347656 C 878.453125 264.347656 884.074219 265.421875 890.445312 266.753906 C 897.398438 268.089844 905.101562 269.683594 917.09375 270.214844 L 917.625 270.214844 C 933.082031 270.746094 941.078125 271.015625 946.40625 266.484375 C 950.164062 263.289062 950.699219 259.550781 955.199219 232.113281 C 958.933594 206.796875 959.730469 200.664062 956.027344 196.667969 Z M 925.382812 180.40625 C 922.714844 180.148438 918.71875 179.074219 915.226562 175.878906 C 913.390625 174.273438 912.058594 172.152344 910.964844 170.019531 L 910.964844 169.488281 C 910.964844 168.945312 910.429688 166.28125 908.058594 164.417969 C 905.394531 162.554688 902.730469 163.355469 901.902344 163.613281 C 898.734375 165.75 893.644531 168.414062 886.980469 169.214844 C 881.917969 169.746094 877.652344 168.945312 874.214844 167.882812 C 875.253906 172.683594 877.121094 177.210938 880.078125 181.207031 C 882.210938 184.402344 886.980469 190.808594 895.773438 192.929688 C 902.4375 194.53125 908.566406 192.667969 911.523438 191.335938 C 911.765625 191.335938 912.058594 191.066406 912.296875 191.066406 C 912.5625 191.066406 912.855469 191.066406 913.097656 191.335938 C 913.628906 191.597656 913.894531 192.140625 913.894531 192.398438 L 916.855469 205.191406 C 919.226562 204.921875 922.714844 204.132812 925.382812 201.195312 C 929.378906 196.667969 929.617188 187.871094 925.382812 180.40625 Z M 958.398438 194.261719 C 963.488281 199.589844 962.394531 207.328125 958.160156 232.371094 C 953.363281 260.882812 952.535156 264.878906 948.03125 268.617188 C 943.503906 272.613281 937.878906 273.679688 929.085938 273.679688 C 925.621094 273.679688 921.625 273.414062 916.855469 273.414062 L 916.292969 273.414062 C 904.0625 272.878906 896.066406 271.28125 889.113281 269.949219 C 880.585938 268.089844 874.214844 266.753906 862.757812 268.089844 C 860.597656 268.347656 858.464844 268.617188 856.335938 268.878906 C 848.339844 269.949219 845.433594 270.480469 844.902344 268.089844 C 844.609375 266.753906 845.140625 265.683594 848.101562 264.347656 C 823.023438 261.683594 823.023438 260.351562 823.023438 258.488281 C 823.023438 256.355469 823.289062 254.765625 859.800781 253.960938 L 927.21875 245.96875 C 927.21875 240.636719 926.953125 222.511719 927.21875 208.917969 C 927.21875 206.796875 927.511719 204.921875 928.046875 203.058594 C 927.753906 203.328125 927.511719 203.859375 927.21875 204.132812 C 923.222656 208.386719 917.625 208.917969 914.722656 209.1875 C 913.894531 209.1875 913.097656 208.660156 913.097656 207.855469 L 910.429688 195.59375 C 906.433594 196.925781 900.863281 198 894.441406 196.394531 C 884.316406 194.003906 878.984375 186.539062 876.585938 183.34375 C 872.882812 178.273438 870.457031 171.882812 869.660156 165.492188 C 869.660156 164.945312 869.925781 164.160156 870.457031 163.886719 C 870.992188 163.613281 871.550781 163.355469 872.082031 163.613281 C 874.988281 164.945312 880.078125 166.28125 885.914062 165.75 C 892.070312 165.21875 896.574219 162.554688 899.53125 160.691406 C 899.53125 160.691406 899.773438 160.417969 900.066406 160.417969 C 900.863281 160.160156 905.394531 158.828125 909.632812 161.492188 C 913.097656 163.886719 913.894531 167.355469 914.1875 168.6875 C 914.960938 170.546875 916.054688 171.882812 917.386719 173.214844 C 920.558594 176.148438 924.289062 176.679688 926.421875 176.9375 C 926.953125 176.9375 927.511719 177.210938 927.753906 177.742188 C 931.21875 183.34375 932.550781 189.476562 931.511719 195.0625 C 935.507812 189.734375 941.078125 188.929688 941.078125 188.929688 L 941.371094 188.929688 C 949.070312 188.671875 954.695312 190.261719 958.398438 194.261719 Z M 92.609375 898.585938 L 92.609375 923.632812 C 92.609375 924.699219 93.410156 925.5 94.472656 925.5 C 95.535156 925.5 96.335938 924.699219 96.335938 923.632812 L 96.335938 897.519531 C 96.335938 896.71875 95.804688 896.1875 95.277344 895.921875 C 92.078125 894.585938 89.945312 891.390625 90.476562 888.191406 C 90.746094 885.792969 92.609375 883.660156 95.003906 882.59375 C 101.136719 881.796875 106.996094 879.929688 112.324219 877 C 118.988281 873.269531 123.785156 868.472656 126.980469 864.207031 C 127.253906 866.871094 127.253906 869.269531 127.253906 871.9375 C 127.511719 886.328125 127.511719 894.054688 122.722656 899.652344 C 120.589844 902.316406 117.394531 904.179688 113.398438 905.511719 C 112.597656 905.78125 112.0625 906.3125 112.0625 907.113281 L 112.0625 923.902344 C 112.0625 924.96875 112.855469 925.765625 113.929688 925.765625 C 114.988281 925.765625 115.792969 924.96875 115.792969 923.902344 L 115.792969 908.445312 C 119.789062 907.113281 122.984375 904.714844 125.386719 902.050781 C 131.25 895.121094 131.25 885.792969 130.980469 871.9375 C 130.980469 867.671875 130.71875 863.410156 130.175781 859.144531 C 130.175781 858.34375 129.648438 857.8125 128.84375 857.546875 C 128.054688 857.28125 127.253906 857.8125 126.980469 858.34375 C 124.316406 862.875 119.257812 869.539062 110.730469 874.066406 C 105.664062 876.734375 100.332031 878.597656 94.472656 879.398438 L 93.941406 879.398438 C 90.203125 880.730469 87.539062 884.195312 87.007812 887.925781 C 85.949219 891.921875 88.339844 896.1875 92.609375 898.585938 Z M 474.484375 72.742188 L 471.527344 96.195312 C 471.527344 97.257812 472.0625 98.058594 473.152344 98.058594 C 473.925781 98.058594 475.019531 97.527344 475.019531 96.453125 L 477.921875 71.941406 C 477.921875 71.410156 477.683594 70.609375 477.390625 70.335938 C 474.484375 68.214844 472.0625 65.277344 470.726562 62.339844 C 464.359375 50.089844 471.261719 35.964844 473.925781 30.90625 C 479.257812 35.433594 484.851562 39.433594 491.007812 42.898438 C 496.335938 45.824219 501.90625 48.230469 507.796875 50.089844 C 508.328125 54.089844 508.035156 58.085938 506.703125 61.554688 C 504.839844 67.671875 501.375 71.667969 498.710938 73.804688 C 498.175781 74.074219 498.175781 74.605469 498.175781 75.136719 L 499.242188 96.195312 C 499.242188 97.257812 500.042969 97.789062 501.132812 97.789062 C 502.175781 97.789062 502.707031 96.984375 502.707031 95.925781 L 501.667969 75.667969 C 504.570312 73 508.035156 68.746094 510.167969 62.339844 C 511.5 57.8125 512.035156 52.757812 511.234375 47.957031 C 511.234375 47.425781 510.703125 46.894531 510.167969 46.625 C 504.332031 44.761719 498.46875 42.355469 493.140625 39.160156 C 486.71875 35.691406 480.589844 31.164062 475.257812 26.367188 C 475.019531 26.105469 474.484375 25.835938 473.925781 25.835938 C 473.394531 25.835938 472.859375 26.105469 472.59375 26.636719 C 471.261719 28.773438 459.535156 47.15625 468.0625 63.414062 C 469.15625 67.414062 471.527344 70.335938 474.484375 72.742188 Z M 144.042969 1191.1875 L 132.84375 1090.988281 C 119.789062 1086.722656 106.195312 1084.324219 92.609375 1083.792969 C 76.878906 1082.992188 61.429688 1084.59375 46.234375 1088.324219 L 44.644531 1204.511719 L 24.914062 1298.582031 L 49.972656 1298.582031 L 75.546875 1217.835938 C 76.347656 1214.105469 93.140625 1123.234375 94.472656 1118.703125 C 94.742188 1117.902344 95.804688 1117.105469 96.609375 1117.371094 C 97.40625 1117.636719 98.199219 1118.703125 97.941406 1119.503906 C 97.667969 1120.835938 95.804688 1129.363281 93.671875 1141.355469 L 106.996094 1196.515625 L 106.996094 1310.839844 L 128.84375 1310.839844 Z M 136.308594 1089.65625 L 147.5 1191.1875 L 147.5 1191.71875 L 132.3125 1312.972656 C 132.3125 1313.769531 131.507812 1314.570312 130.449219 1314.570312 L 105.132812 1314.570312 C 104.070312 1314.570312 103.269531 1313.769531 103.269531 1312.707031 L 103.269531 1197.316406 L 91.277344 1150.148438 C 87.28125 1171.734375 81.679688 1200.246094 78.210938 1218.902344 L 52.367188 1301.246094 C 52.105469 1302.046875 51.5625 1302.578125 50.773438 1302.578125 L 22.792969 1302.578125 C 22.25 1302.578125 21.71875 1302.3125 21.460938 1302.046875 C 21.1875 1301.511719 20.917969 1300.980469 21.1875 1300.714844 L 41.445312 1204.777344 L 43.039062 1087.789062 C 43.039062 1086.992188 43.570312 1086.191406 44.371094 1086.191406 C 60.359375 1081.925781 76.621094 1080.328125 93.140625 1081.128906 C 107.527344 1081.925781 121.652344 1084.59375 135.25 1088.855469 C 135.777344 1088.324219 136.046875 1088.855469 136.308594 1089.65625 Z M 17.722656 1084.859375 C 16.390625 1086.457031 15.058594 1088.058594 13.996094 1089.921875 C 10.800781 1094.71875 9.726562 1098.984375 8.664062 1101.914062 C 7.863281 1104.578125 7.332031 1106.445312 5.46875 1106.445312 C 4.929688 1106.445312 4.398438 1106.179688 3.867188 1105.644531 C 1.472656 1102.980469 0.402344 1090.722656 0.671875 1080.863281 C 0.929688 1074.199219 2.003906 1067.539062 3.867188 1060.875 C 4.136719 1060.074219 5.199219 1059.277344 6 1059.542969 C 7.0625 1059.808594 7.59375 1060.875 7.332031 1061.675781 C 5.730469 1068.070312 4.667969 1074.464844 4.398438 1080.863281 C 3.867188 1089.390625 4.929688 1096.851562 5.730469 1100.582031 C 6.53125 1097.652344 8.136719 1093.121094 11.332031 1088.058594 C 12.921875 1085.390625 15.058594 1082.992188 17.191406 1080.59375 C 17.460938 1080.328125 18.253906 1080.0625 18.792969 1080.0625 C 19.324219 1080.0625 19.855469 1080.59375 20.128906 1080.863281 C 21.460938 1083.261719 22.25 1084.324219 22.792969 1085.125 C 23.324219 1083.261719 23.582031 1078.195312 21.71875 1062.742188 C 21.71875 1061.675781 22.25 1060.875 23.324219 1060.875 C 24.382812 1060.609375 25.1875 1061.410156 25.1875 1062.472656 C 28.121094 1086.191406 26.246094 1088.589844 23.855469 1089.390625 C 21.1875 1089.65625 19.585938 1087.789062 17.722656 1084.859375 " fill-opacity="1" fill-rule="nonzero"/></g><path fill="#3e77ac" d="M 1282.472656 833.835938 C 1273.945312 835.703125 1258.488281 837.566406 1240.074219 833.570312 C 1219.847656 829.039062 1205.699219 819.179688 1198.769531 813.582031 L 1233.171875 757.621094 L 1210.761719 742.164062 C 1194 757.621094 1183.046875 772.542969 1176.386719 783.472656 C 1166.019531 799.726562 1160.394531 808.519531 1162.019531 819.980469 C 1163.886719 834.371094 1175.878906 843.695312 1188.375 853.023438 C 1196.371094 859.152344 1210.761719 868.480469 1232.082031 873.542969 C 1233.171875 915.914062 1234.210938 958.550781 1235.546875 1000.925781 C 1247.535156 1004.65625 1264.859375 1008.386719 1285.9375 1008.652344 C 1307.789062 1008.652344 1325.910156 1004.65625 1338.140625 1000.925781 L 1338.140625 891.664062 C 1343.230469 893.796875 1351.464844 898.058594 1359.222656 906.585938 C 1366.125 914.050781 1369.585938 921.246094 1371.746094 926.308594 C 1373.320312 950.023438 1374.917969 974.007812 1376.542969 997.726562 L 1407.1875 996.394531 C 1406.894531 987.867188 1406.390625 975.875 1404.765625 961.484375 C 1401.300781 931.902344 1398.101562 904.722656 1381.3125 877.808594 C 1374.117188 866.082031 1364.792969 851.160156 1345.898438 841.832031 C 1328.28125 833.304688 1311.492188 833.835938 1302.964844 834.636719 C 1301.367188 839.167969 1296.835938 842.097656 1292.308594 841.832031 C 1287.511719 840.765625 1283.804688 837.835938 1282.472656 833.835938 Z M 113.636719 923.375 L 181.058594 946.027344 L 246.347656 893.53125 L 258.609375 902.324219 C 246.878906 920.179688 235.691406 934.300781 227.164062 944.695312 C 210.101562 964.949219 202.648438 970.277344 193.582031 972.410156 C 188.253906 973.742188 181.863281 973.210938 169.066406 972.410156 C 156.546875 971.609375 146.144531 970.277344 138.691406 968.945312 C 137.089844 986.800781 136.289062 1005.988281 136.289062 1026.507812 C 136.289062 1048.890625 137.089844 1069.945312 138.691406 1089.132812 C 123.492188 1089.929688 106.972656 1090.195312 89.390625 1089.664062 C 73.664062 1089.132812 58.746094 1088.066406 44.878906 1086.734375 C 47.285156 1071.277344 49.148438 1054.222656 49.953125 1035.300781 C 50.75 1017.179688 50.480469 1000.65625 49.417969 985.734375 C 42.488281 997.992188 35.292969 1010.25 28.359375 1022.242188 L 25.964844 1062.214844 L 3.042969 1061.148438 C 2.511719 1046.757812 3.847656 1025.972656 11.570312 1002.257812 C 24.101562 964.414062 46.753906 940.164062 59.007812 928.707031 L 94.453125 923.644531 C 94.722656 924.175781 97.917969 928.441406 103.78125 928.707031 C 109.640625 928.707031 113.375 923.910156 113.636719 923.375 " fill-opacity="1" fill-rule="nonzero"/></svg>