<svg xmlns="http://www.w3.org/2000/svg" xmlns:xlink="http://www.w3.org/1999/xlink" width="1920" zoomAndPan="magnify" viewBox="0 0 1440 479.999983" height="640" preserveAspectRatio="xMidYMid meet" version="1.0"><defs><g/><clipPath id="235f5660c0"><path d="M 610.261719 184 L 714 184 L 714 300 L 610.261719 300 Z M 610.261719 184 " clip-rule="nonzero"/></clipPath><clipPath id="55d14b2c39"><path d="M 725 184 L 828.511719 184 L 828.511719 300 L 725 300 Z M 725 184 " clip-rule="nonzero"/></clipPath></defs><g fill="#3e77ac" fill-opacity="1"><g transform="translate(23.812524, 282.715435)"><g><path d="M 167.65625 0 L 129.40625 0 L 129.40625 -79.5625 L 54.828125 -79.5625 L 54.828125 0 L 16.578125 0 L 16.578125 -185.625 L 54.828125 -185.625 L 54.828125 -110.40625 L 129.40625 -110.40625 L 129.40625 -185.625 L 167.65625 -185.625 Z M 167.65625 0 "/></g></g><g transform="translate(208.299705, 282.715435)"><g><path d="M 53.03125 0 L 16.0625 0 L 16.0625 -137.953125 L 53.03125 -137.953125 Z M 13.890625 -173.640625 C 13.890625 -179.171875 15.738281 -183.71875 19.4375 -187.28125 C 23.132812 -190.851562 28.171875 -192.640625 34.546875 -192.640625 C 40.835938 -192.640625 45.851562 -190.851562 49.59375 -187.28125 C 53.332031 -183.71875 55.203125 -179.171875 55.203125 -173.640625 C 55.203125 -168.035156 53.3125 -163.445312 49.53125 -159.875 C 45.75 -156.3125 40.753906 -154.53125 34.546875 -154.53125 C 28.347656 -154.53125 23.351562 -156.3125 19.5625 -159.875 C 15.78125 -163.445312 13.890625 -168.035156 13.890625 -173.640625 Z M 13.890625 -173.640625 "/></g></g><g transform="translate(277.53021, 282.715435)"><g><path d="M 65.78125 -45 L 91.40625 -137.953125 L 129.921875 -137.953125 L 83.375 0 L 48.1875 0 L 1.65625 -137.953125 L 40.15625 -137.953125 Z M 65.78125 -45 "/></g></g><g transform="translate(409.488905, 282.715435)"><g><path d="M 77.640625 2.546875 C 57.410156 2.546875 40.941406 -3.65625 28.234375 -16.0625 C 15.523438 -28.46875 9.171875 -45 9.171875 -65.65625 L 9.171875 -69.234375 C 9.171875 -83.085938 11.847656 -95.472656 17.203125 -106.390625 C 22.566406 -117.316406 30.15625 -125.734375 39.96875 -131.640625 C 49.78125 -137.546875 60.976562 -140.5 73.5625 -140.5 C 92.4375 -140.5 107.289062 -134.546875 118.125 -122.640625 C 128.957031 -110.742188 134.375 -93.875 134.375 -72.03125 L 134.375 -56.984375 L 46.53125 -56.984375 C 47.726562 -47.972656 51.320312 -40.75 57.3125 -35.3125 C 63.300781 -29.875 70.882812 -27.15625 80.0625 -27.15625 C 94.257812 -27.15625 105.351562 -32.296875 113.34375 -42.578125 L 131.453125 -22.3125 C 125.921875 -14.488281 118.4375 -8.390625 109 -4.015625 C 99.570312 0.359375 89.117188 2.546875 77.640625 2.546875 Z M 73.4375 -110.671875 C 66.125 -110.671875 60.191406 -108.203125 55.640625 -103.265625 C 51.097656 -98.335938 48.191406 -91.285156 46.921875 -82.109375 L 98.171875 -82.109375 L 98.171875 -85.03125 C 98.003906 -93.195312 95.796875 -99.507812 91.546875 -103.96875 C 87.296875 -108.4375 81.257812 -110.671875 73.4375 -110.671875 Z M 73.4375 -110.671875 "/></g></g></g><g fill="#3e77ac" fill-opacity="1"><g transform="translate(907.730328, 280.535378)"><g><path d="M 167.640625 0 L 129.40625 0 L 129.40625 -79.546875 L 54.8125 -79.546875 L 54.8125 0 L 16.578125 0 L 16.578125 -185.625 L 54.8125 -185.625 L 54.8125 -110.40625 L 129.40625 -110.40625 L 129.40625 -185.625 L 167.640625 -185.625 Z M 167.640625 0 "/></g></g></g><g fill="#3e77ac" fill-opacity="1"><g transform="translate(1092.188954, 280.535378)"><g><path d="M 53.03125 0 L 16.0625 0 L 16.0625 -137.9375 L 53.03125 -137.9375 Z M 13.890625 -173.640625 C 13.890625 -179.160156 15.738281 -183.707031 19.4375 -187.28125 C 23.132812 -190.851562 28.171875 -192.640625 34.546875 -192.640625 C 40.835938 -192.640625 45.851562 -190.851562 49.59375 -187.28125 C 53.332031 -183.707031 55.203125 -179.160156 55.203125 -173.640625 C 55.203125 -168.023438 53.3125 -163.429688 49.53125 -159.859375 C 45.75 -156.296875 40.753906 -154.515625 34.546875 -154.515625 C 28.347656 -154.515625 23.351562 -156.296875 19.5625 -159.859375 C 15.78125 -163.429688 13.890625 -168.023438 13.890625 -173.640625 Z M 13.890625 -173.640625 "/></g></g></g><g fill="#3e77ac" fill-opacity="1"><g transform="translate(1161.408762, 280.535378)"><g><path d="M 91.65625 -103.390625 C 86.644531 -104.066406 82.226562 -104.40625 78.40625 -104.40625 C 64.46875 -104.40625 55.332031 -99.691406 51 -90.265625 L 51 0 L 14.15625 0 L 14.15625 -137.9375 L 48.953125 -137.9375 L 49.96875 -121.5 C 57.363281 -134.15625 67.609375 -140.484375 80.703125 -140.484375 C 84.773438 -140.484375 88.597656 -139.929688 92.171875 -138.828125 Z M 91.65625 -103.390625 "/></g></g></g><g fill="#3e77ac" fill-opacity="1"><g transform="translate(1256.633787, 280.535378)"><g><path d="M 77.640625 2.546875 C 57.410156 2.546875 40.941406 -3.65625 28.234375 -16.0625 C 15.523438 -28.46875 9.171875 -45 9.171875 -65.65625 L 9.171875 -69.21875 C 9.171875 -83.070312 11.847656 -95.457031 17.203125 -106.375 C 22.566406 -117.300781 30.15625 -125.71875 39.96875 -131.625 C 49.78125 -137.53125 60.976562 -140.484375 73.5625 -140.484375 C 92.425781 -140.484375 107.273438 -134.535156 118.109375 -122.640625 C 128.953125 -110.742188 134.375 -93.875 134.375 -72.03125 L 134.375 -56.984375 L 46.53125 -56.984375 C 47.71875 -47.972656 51.304688 -40.75 57.296875 -35.3125 C 63.296875 -29.875 70.882812 -27.15625 80.0625 -27.15625 C 94.257812 -27.15625 105.351562 -32.296875 113.34375 -42.578125 L 131.4375 -22.3125 C 125.914062 -14.488281 118.4375 -8.390625 109 -4.015625 C 99.5625 0.359375 89.109375 2.546875 77.640625 2.546875 Z M 73.4375 -110.65625 C 66.125 -110.65625 60.191406 -108.191406 55.640625 -103.265625 C 51.097656 -98.335938 48.191406 -91.285156 46.921875 -82.109375 L 98.171875 -82.109375 L 98.171875 -85.03125 C 97.992188 -93.1875 95.78125 -99.492188 91.53125 -103.953125 C 87.28125 -108.421875 81.25 -110.65625 73.4375 -110.65625 Z M 73.4375 -110.65625 "/></g></g></g><g clip-path="url(#235f5660c0)"><path fill="#f8bb33" d="M 713.339844 265.980469 C 713.339844 269.257812 711.011719 273.273438 708.1875 274.9375 L 666.972656 298.730469 C 664.117188 300.375 659.464844 300.375 656.667969 298.714844 L 615.414062 274.90625 C 612.574219 273.273438 610.242188 269.257812 610.261719 265.988281 L 610.261719 218.363281 C 610.261719 215.101562 612.574219 211.078125 615.429688 209.4375 L 656.625 185.628906 C 659.492188 183.996094 664.125 183.996094 666.972656 185.628906 L 708.203125 209.4375 C 711.011719 211.066406 713.339844 215.101562 713.371094 218.363281 Z M 713.339844 265.980469 " fill-opacity="1" fill-rule="nonzero"/></g><g clip-path="url(#55d14b2c39)"><path fill="#f8bb33" d="M 828.136719 265.980469 C 828.136719 269.257812 825.832031 273.273438 822.984375 274.9375 L 781.746094 298.730469 C 778.914062 300.375 774.257812 300.375 771.433594 298.714844 L 730.21875 274.90625 C 727.378906 273.273438 725.039062 269.257812 725.054688 265.988281 L 725.054688 218.363281 C 725.054688 215.101562 727.378906 211.078125 730.21875 209.4375 L 771.433594 185.628906 C 774.257812 183.996094 778.9375 183.996094 781.746094 185.628906 L 822.984375 209.4375 C 825.832031 211.066406 828.136719 215.101562 828.160156 218.363281 Z M 828.136719 265.980469 " fill-opacity="1" fill-rule="nonzero"/></g><path fill="#f8bb33" d="M 770.742188 167.296875 C 770.742188 170.558594 768.4375 174.601562 765.597656 176.230469 L 724.351562 200.039062 C 721.511719 201.65625 716.878906 201.65625 714.027344 200.039062 L 672.800781 176.230469 C 669.972656 174.601562 667.652344 170.566406 667.652344 167.296875 L 667.652344 119.6875 C 667.679688 116.410156 669.972656 112.378906 672.800781 110.730469 L 714.027344 86.964844 C 716.902344 85.300781 721.511719 85.300781 724.351562 86.964844 L 765.597656 110.730469 C 768.421875 112.378906 770.742188 116.402344 770.742188 119.6875 Z M 770.742188 167.296875 " fill-opacity="1" fill-rule="nonzero"/><g fill="#3e77ac" fill-opacity="1"><g transform="translate(359.659667, 421.935517)"><g><path d="M 2.578125 0 L 2.578125 -6.515625 L 5.21875 -6.75 C 6.769531 -6.90625 7.546875 -7.65625 7.546875 -9 L 7.546875 -46.375 L 2.96875 -46.609375 L 2.96875 -53.4375 L 24.90625 -53.4375 C 31.125 -53.4375 35.894531 -52.285156 39.21875 -49.984375 C 42.539062 -47.679688 44.203125 -43.90625 44.203125 -38.65625 C 44.203125 -35.007812 43.25 -32.003906 41.34375 -29.640625 C 39.4375 -27.285156 37.171875 -25.578125 34.546875 -24.515625 C 36.484375 -23.816406 38.015625 -22.179688 39.140625 -19.609375 L 44.921875 -6.984375 L 49.5 -6.828125 L 49.5 0 L 29.65625 0 L 29.65625 -6.515625 L 31.984375 -6.75 C 33.210938 -6.90625 33.828125 -7.390625 33.828125 -8.203125 C 33.828125 -8.515625 33.722656 -8.890625 33.515625 -9.328125 L 29.734375 -17.359375 C 29.140625 -18.691406 28.476562 -19.640625 27.75 -20.203125 C 27.03125 -20.765625 26.003906 -21.046875 24.671875 -21.046875 L 17.359375 -21.046875 L 17.359375 -7.078125 L 22.578125 -6.828125 L 22.578125 0 Z M 17.359375 -28.6875 L 24.34375 -28.6875 C 30.9375 -28.6875 34.234375 -31.632812 34.234375 -37.53125 C 34.234375 -40.90625 33.363281 -43.097656 31.625 -44.109375 C 29.882812 -45.128906 27.082031 -45.640625 23.21875 -45.640625 L 17.359375 -45.640625 Z M 17.359375 -28.6875 "/></g></g></g><g fill="#3e77ac" fill-opacity="1"><g transform="translate(409.959231, 421.935517)"><g><path d="M 22.828125 -41.625 C 26.835938 -41.625 30.019531 -40.644531 32.375 -38.6875 C 34.738281 -36.738281 35.921875 -33.992188 35.921875 -30.453125 C 35.921875 -28.097656 35.410156 -26.019531 34.390625 -24.21875 C 33.367188 -22.425781 32.109375 -21.019531 30.609375 -20 C 29.109375 -18.988281 27.289062 -18.160156 25.15625 -17.515625 C 21.5625 -16.441406 17.515625 -15.90625 13.015625 -15.90625 C 13.179688 -13.070312 14.066406 -10.78125 15.671875 -9.03125 C 17.273438 -7.289062 19.738281 -6.421875 23.0625 -6.421875 C 26.382812 -6.421875 29.707031 -7.601562 33.03125 -9.96875 L 36.078125 -3.453125 C 35.003906 -2.492188 33.195312 -1.503906 30.65625 -0.484375 C 28.113281 0.535156 25.207031 1.046875 21.9375 1.046875 C 15.40625 1.046875 10.609375 -0.757812 7.546875 -4.375 C 4.492188 -7.988281 2.96875 -12.957031 2.96875 -19.28125 C 2.96875 -25.601562 4.707031 -30.90625 8.1875 -35.1875 C 11.675781 -39.476562 16.554688 -41.625 22.828125 -41.625 Z M 19.15625 -23.25 C 21.113281 -23.601562 22.921875 -24.382812 24.578125 -25.59375 C 26.242188 -26.800781 27.078125 -28.234375 27.078125 -29.890625 C 27.078125 -33.160156 25.472656 -34.796875 22.265625 -34.796875 C 19.265625 -34.796875 16.957031 -33.601562 15.34375 -31.21875 C 13.738281 -28.832031 12.859375 -25.976562 12.703125 -22.65625 C 15.054688 -22.707031 17.207031 -22.90625 19.15625 -23.25 Z M 19.15625 -23.25 "/></g></g></g><g fill="#3e77ac" fill-opacity="1"><g transform="translate(448.84896, 421.935517)"><g><path d="M 2.171875 -33.984375 L 2.171875 -40.421875 L 15.75 -40.421875 L 15.75 -35.203125 C 17.144531 -37.179688 18.992188 -38.742188 21.296875 -39.890625 C 23.597656 -41.046875 26.085938 -41.625 28.765625 -41.625 C 32.835938 -41.625 35.984375 -40.457031 38.203125 -38.125 C 40.429688 -35.800781 41.546875 -32.304688 41.546875 -27.640625 L 41.546875 -6.671875 L 46.125 -6.421875 L 46.125 0 L 27 0 L 27 -6.109375 L 29.65625 -6.34375 C 30.457031 -6.457031 31.046875 -6.6875 31.421875 -7.03125 C 31.796875 -7.375 31.984375 -8.03125 31.984375 -9 L 31.984375 -25.546875 C 31.984375 -28.492188 31.523438 -30.675781 30.609375 -32.09375 C 29.703125 -33.519531 27.972656 -34.234375 25.421875 -34.234375 C 22.878906 -34.234375 20.859375 -33.425781 19.359375 -31.8125 C 17.859375 -30.207031 17.109375 -28.304688 17.109375 -26.109375 L 17.109375 -6.671875 L 21.703125 -6.421875 L 21.703125 0 L 2.578125 0 L 2.578125 -6.109375 L 5.21875 -6.34375 C 6.019531 -6.457031 6.609375 -6.6875 6.984375 -7.03125 C 7.359375 -7.375 7.546875 -8.03125 7.546875 -9 L 7.546875 -31.265625 C 7.546875 -32.867188 6.878906 -33.695312 5.546875 -33.75 Z M 2.171875 -33.984375 "/></g></g></g><g fill="#3e77ac" fill-opacity="1"><g transform="translate(497.059393, 421.935517)"><g><path d="M 11.578125 -48.9375 L 16.796875 -48.9375 L 16.796875 -40.421875 L 27.484375 -40.421875 L 26.671875 -33.671875 L 16.796875 -33.671875 L 16.796875 -12.53125 C 16.796875 -10.175781 17.222656 -8.53125 18.078125 -7.59375 C 18.929688 -6.65625 20.253906 -6.1875 22.046875 -6.1875 C 23.847656 -6.1875 25.660156 -6.75 27.484375 -7.875 L 29.890625 -1.6875 C 27.210938 0.1875 23.8125 1.125 19.6875 1.125 C 17.28125 1.125 15.242188 0.816406 13.578125 0.203125 C 11.921875 -0.410156 10.6875 -1.09375 9.875 -1.84375 C 9.070312 -2.59375 8.457031 -3.691406 8.03125 -5.140625 C 7.601562 -6.585938 7.363281 -7.722656 7.3125 -8.546875 C 7.257812 -9.378906 7.234375 -10.601562 7.234375 -12.21875 L 7.234375 -33.671875 L 1.53125 -33.671875 L 2.328125 -39.53125 C 4.847656 -39.75 6.75 -40.644531 8.03125 -42.21875 C 9.320312 -43.800781 10.503906 -46.039062 11.578125 -48.9375 Z M 11.578125 -48.9375 "/></g></g></g><g fill="#3e77ac" fill-opacity="1"><g transform="translate(527.351619, 421.935517)"><g><path d="M 38.734375 -38.8125 L 38.734375 -8.921875 C 38.734375 -8.066406 38.878906 -7.476562 39.171875 -7.15625 C 39.472656 -6.832031 40 -6.644531 40.75 -6.59375 L 43.3125 -6.421875 L 43.3125 0 L 30.53125 0 L 30.53125 -4.65625 L 30.296875 -4.734375 C 27.617188 -0.878906 23.945312 1.046875 19.28125 1.046875 C 13.820312 1.046875 9.78125 -0.691406 7.15625 -4.171875 C 4.53125 -7.660156 3.21875 -12.429688 3.21875 -18.484375 C 3.21875 -25.765625 4.984375 -31.441406 8.515625 -35.515625 C 12.054688 -39.585938 17.359375 -41.625 24.421875 -41.625 C 28.984375 -41.625 33.753906 -40.6875 38.734375 -38.8125 Z M 29.40625 -12.78125 L 29.40625 -33.59375 C 27.90625 -34.289062 25.84375 -34.640625 23.21875 -34.640625 C 19.632812 -34.640625 17.035156 -33.191406 15.421875 -30.296875 C 13.816406 -27.398438 13.015625 -23.566406 13.015625 -18.796875 C 13.015625 -10.117188 15.800781 -5.78125 21.375 -5.78125 C 23.726562 -5.78125 25.65625 -6.488281 27.15625 -7.90625 C 28.65625 -9.332031 29.40625 -10.957031 29.40625 -12.78125 Z M 29.40625 -12.78125 "/></g></g></g><g fill="#3e77ac" fill-opacity="1"><g transform="translate(572.910481, 421.935517)"><g><path d="M 17.03125 -57.296875 L 17.03125 -6.671875 L 21.609375 -6.421875 L 21.609375 0 L 2.484375 0 L 2.484375 -6.109375 L 5.140625 -6.34375 C 6.691406 -6.507812 7.46875 -7.367188 7.46875 -8.921875 L 7.46875 -48.53125 C 7.46875 -49.71875 6.800781 -50.363281 5.46875 -50.46875 L 2.65625 -50.625 L 2.65625 -57.296875 Z M 17.03125 -57.296875 "/></g></g></g><g fill="#3e77ac" fill-opacity="1"><g transform="translate(596.854969, 421.935517)"><g/></g></g><g fill="#3e77ac" fill-opacity="1"><g transform="translate(612.925092, 421.935517)"><g><path d="M 38.171875 -17.671875 C 39.191406 -20.242188 39.703125 -22.710938 39.703125 -25.078125 C 39.703125 -25.828125 39.21875 -26.253906 38.25 -26.359375 L 35.671875 -26.515625 L 35.671875 -32.78125 L 52.640625 -32.78125 L 52.640625 -26.28125 L 48.21875 -26.109375 C 48.21875 -20.972656 47.09375 -16.257812 44.84375 -11.96875 C 47.25 -9.9375 50.625 -7.367188 54.96875 -4.265625 L 49.65625 2.734375 C 46.445312 0.585938 43.070312 -1.929688 39.53125 -4.828125 C 35.570312 -0.859375 30.21875 1.125 23.46875 1.125 C 16.71875 1.125 11.785156 -0.453125 8.671875 -3.609375 C 5.566406 -6.773438 4.015625 -10.632812 4.015625 -15.1875 C 4.015625 -22.257812 7.285156 -27.832031 13.828125 -31.90625 C 12.160156 -34.632812 11.328125 -37.582031 11.328125 -40.75 C 11.328125 -44.8125 12.691406 -48.101562 15.421875 -50.625 C 18.160156 -53.144531 22.003906 -54.40625 26.953125 -54.40625 C 31.910156 -54.40625 36.75 -53.304688 41.46875 -51.109375 L 41.46875 -38.96875 L 33.265625 -38.40625 L 33.265625 -43.3125 C 33.265625 -44.8125 32.703125 -45.75 31.578125 -46.125 C 30.128906 -46.550781 28.710938 -46.765625 27.328125 -46.765625 C 22.984375 -46.765625 20.8125 -44.703125 20.8125 -40.578125 C 20.8125 -35.117188 26.597656 -27.484375 38.171875 -17.671875 Z M 32.78125 -10.453125 C 26.351562 -15.910156 21.503906 -20.835938 18.234375 -25.234375 C 14.972656 -22.929688 13.34375 -19.796875 13.34375 -15.828125 C 13.34375 -13.097656 14.1875 -10.890625 15.875 -9.203125 C 17.5625 -7.515625 20.238281 -6.671875 23.90625 -6.671875 C 27.570312 -6.671875 30.53125 -7.929688 32.78125 -10.453125 Z M 32.78125 -10.453125 "/></g></g></g><g fill="#3e77ac" fill-opacity="1"><g transform="translate(670.29547, 421.935517)"><g/></g></g><g fill="#3e77ac" fill-opacity="1"><g transform="translate(686.365593, 421.935517)"><g><path d="M 35.03125 -44.921875 C 34.445312 -45.941406 32.253906 -46.453125 28.453125 -46.453125 C 23.460938 -46.453125 19.679688 -44.765625 17.109375 -41.390625 C 14.546875 -38.015625 13.265625 -33.140625 13.265625 -26.765625 C 13.265625 -13.523438 18.21875 -6.90625 28.125 -6.90625 C 28.28125 -6.90625 28.988281 -6.90625 30.25 -6.90625 C 31.507812 -6.90625 32.703125 -7.078125 33.828125 -7.421875 C 34.953125 -7.773438 35.617188 -8.140625 35.828125 -8.515625 C 36.046875 -8.890625 36.15625 -9.476562 36.15625 -10.28125 L 36.15625 -16.71875 L 44.359375 -16.15625 L 44.359375 -2.25 C 40.179688 -0.0507812 34.878906 1.046875 28.453125 1.046875 C 20.253906 1.046875 14 -1.253906 9.6875 -5.859375 C 5.375 -10.472656 3.21875 -17.332031 3.21875 -26.4375 C 3.21875 -31.46875 3.9375 -35.859375 5.375 -39.609375 C 6.820312 -43.367188 8.78125 -46.289062 11.25 -48.375 C 16.070312 -52.394531 21.804688 -54.40625 28.453125 -54.40625 C 33.804688 -54.40625 38.84375 -53.304688 43.5625 -51.109375 L 43.5625 -37.453125 L 35.359375 -36.890625 L 35.359375 -43.15625 C 35.359375 -43.957031 35.25 -44.546875 35.03125 -44.921875 Z M 35.03125 -44.921875 "/></g></g></g><g fill="#3e77ac" fill-opacity="1"><g transform="translate(734.736724, 421.935517)"><g><path d="M 21.140625 -5.859375 C 26.972656 -5.859375 29.890625 -10.578125 29.890625 -20.015625 C 29.890625 -24.773438 29.234375 -28.382812 27.921875 -30.84375 C 26.609375 -33.3125 24.410156 -34.546875 21.328125 -34.546875 C 18.253906 -34.546875 15.992188 -33.367188 14.546875 -31.015625 C 13.097656 -28.660156 12.375 -25.445312 12.375 -21.375 C 12.375 -13.820312 13.765625 -9.082031 16.546875 -7.15625 C 17.785156 -6.289062 19.316406 -5.859375 21.140625 -5.859375 Z M 2.65625 -20.25 C 2.65625 -24.21875 3.242188 -27.660156 4.421875 -30.578125 C 5.597656 -33.492188 7.175781 -35.726562 9.15625 -37.28125 C 12.957031 -40.175781 17.164062 -41.625 21.78125 -41.625 C 24.988281 -41.625 27.703125 -41.097656 29.921875 -40.046875 C 32.148438 -39.003906 33.894531 -37.800781 35.15625 -36.4375 C 36.414062 -35.070312 37.488281 -33.085938 38.375 -30.484375 C 39.257812 -27.890625 39.703125 -24.828125 39.703125 -21.296875 C 39.703125 -13.898438 37.90625 -8.300781 34.3125 -4.5 C 30.71875 -0.695312 26.125 1.203125 20.53125 1.203125 C 14.9375 1.203125 10.554688 -0.601562 7.390625 -4.21875 C 4.234375 -7.832031 2.65625 -13.175781 2.65625 -20.25 Z M 2.65625 -20.25 "/></g></g></g><g fill="#3e77ac" fill-opacity="1"><g transform="translate(777.161923, 421.935517)"><g><path d="M 2.171875 -33.984375 L 2.171875 -40.421875 L 15.75 -40.421875 L 15.75 -35.203125 C 17.144531 -37.179688 18.992188 -38.742188 21.296875 -39.890625 C 23.597656 -41.046875 26.085938 -41.625 28.765625 -41.625 C 32.835938 -41.625 35.984375 -40.457031 38.203125 -38.125 C 40.429688 -35.800781 41.546875 -32.304688 41.546875 -27.640625 L 41.546875 -6.671875 L 46.125 -6.421875 L 46.125 0 L 27 0 L 27 -6.109375 L 29.65625 -6.34375 C 30.457031 -6.457031 31.046875 -6.6875 31.421875 -7.03125 C 31.796875 -7.375 31.984375 -8.03125 31.984375 -9 L 31.984375 -25.546875 C 31.984375 -28.492188 31.523438 -30.675781 30.609375 -32.09375 C 29.703125 -33.519531 27.972656 -34.234375 25.421875 -34.234375 C 22.878906 -34.234375 20.859375 -33.425781 19.359375 -31.8125 C 17.859375 -30.207031 17.109375 -28.304688 17.109375 -26.109375 L 17.109375 -6.671875 L 21.703125 -6.421875 L 21.703125 0 L 2.578125 0 L 2.578125 -6.109375 L 5.21875 -6.34375 C 6.019531 -6.457031 6.609375 -6.6875 6.984375 -7.03125 C 7.359375 -7.375 7.546875 -8.03125 7.546875 -9 L 7.546875 -31.265625 C 7.546875 -32.867188 6.878906 -33.695312 5.546875 -33.75 Z M 2.171875 -33.984375 "/></g></g></g><g fill="#3e77ac" fill-opacity="1"><g transform="translate(825.372356, 421.935517)"><g><path d="M 23.703125 -34.3125 C 22.421875 -34.789062 20.867188 -35.03125 19.046875 -35.03125 C 17.222656 -35.03125 15.757812 -34.613281 14.65625 -33.78125 C 13.5625 -32.957031 13.015625 -31.941406 13.015625 -30.734375 C 13.015625 -29.523438 13.210938 -28.585938 13.609375 -27.921875 C 14.015625 -27.253906 14.648438 -26.679688 15.515625 -26.203125 C 16.847656 -25.503906 18.453125 -24.898438 20.328125 -24.390625 C 22.203125 -23.878906 23.59375 -23.472656 24.5 -23.171875 C 25.414062 -22.878906 26.554688 -22.382812 27.921875 -21.6875 C 29.285156 -21 30.316406 -20.253906 31.015625 -19.453125 C 32.890625 -17.460938 33.828125 -14.914062 33.828125 -11.8125 C 33.828125 -7.789062 32.367188 -4.640625 29.453125 -2.359375 C 26.535156 -0.0859375 22.828125 1.046875 18.328125 1.046875 C 11.785156 1.046875 6.851562 0.210938 3.53125 -1.453125 L 3.53125 -12.609375 L 10.765625 -13.171875 L 10.765625 -9.328125 C 10.765625 -6.960938 13.015625 -5.78125 17.515625 -5.78125 C 22.015625 -5.78125 24.265625 -7.414062 24.265625 -10.6875 C 24.265625 -11.863281 23.875 -12.828125 23.09375 -13.578125 C 22.320312 -14.328125 21.5625 -14.835938 20.8125 -15.109375 C 20.0625 -15.378906 19.160156 -15.644531 18.109375 -15.90625 C 17.066406 -16.175781 16.050781 -16.441406 15.0625 -16.703125 C 14.070312 -16.972656 13 -17.335938 11.84375 -17.796875 C 10.695312 -18.253906 9.425781 -18.910156 8.03125 -19.765625 C 5.300781 -21.535156 3.9375 -24.492188 3.9375 -28.640625 C 3.9375 -32.796875 5.410156 -36 8.359375 -38.25 C 11.304688 -40.5 15.015625 -41.625 19.484375 -41.625 C 23.960938 -41.625 28.394531 -40.550781 32.78125 -38.40625 L 32.78125 -28.765625 L 25.546875 -28.203125 L 25.546875 -31.578125 C 25.546875 -32.921875 24.929688 -33.832031 23.703125 -34.3125 Z M 23.703125 -34.3125 "/></g></g></g><g fill="#3e77ac" fill-opacity="1"><g transform="translate(861.610515, 421.935517)"><g><path d="M 45.25 -6.34375 L 45.25 0 L 32.21875 0 L 32.21875 -5.21875 C 29.269531 -1.039062 24.929688 1.046875 19.203125 1.046875 C 10.898438 1.046875 6.75 -3.585938 6.75 -12.859375 L 6.75 -31.421875 C 6.75 -32.867188 6.078125 -33.617188 4.734375 -33.671875 L 2.171875 -33.828125 L 2.171875 -40.421875 L 16.3125 -40.421875 L 16.3125 -14.953125 C 16.3125 -12.109375 16.710938 -9.960938 17.515625 -8.515625 C 18.316406 -7.066406 19.976562 -6.34375 22.5 -6.34375 C 25.019531 -6.34375 27.039062 -7.117188 28.5625 -8.671875 C 30.09375 -10.234375 30.859375 -12.109375 30.859375 -14.296875 L 30.859375 -31.265625 C 30.859375 -32.117188 30.707031 -32.71875 30.40625 -33.0625 C 30.113281 -33.414062 29.59375 -33.617188 28.84375 -33.671875 L 26.28125 -33.828125 L 26.28125 -40.421875 L 40.421875 -40.421875 L 40.421875 -8.921875 C 40.421875 -8.066406 40.550781 -7.488281 40.8125 -7.1875 C 41.082031 -6.894531 41.625 -6.695312 42.4375 -6.59375 Z M 45.25 -6.34375 "/></g></g></g><g fill="#3e77ac" fill-opacity="1"><g transform="translate(909.097747, 421.935517)"><g><path d="M 17.03125 -57.296875 L 17.03125 -6.671875 L 21.609375 -6.421875 L 21.609375 0 L 2.484375 0 L 2.484375 -6.109375 L 5.140625 -6.34375 C 6.691406 -6.507812 7.46875 -7.367188 7.46875 -8.921875 L 7.46875 -48.53125 C 7.46875 -49.71875 6.800781 -50.363281 5.46875 -50.46875 L 2.65625 -50.625 L 2.65625 -57.296875 Z M 17.03125 -57.296875 "/></g></g></g><g fill="#3e77ac" fill-opacity="1"><g transform="translate(933.042234, 421.935517)"><g><path d="M 11.578125 -48.9375 L 16.796875 -48.9375 L 16.796875 -40.421875 L 27.484375 -40.421875 L 26.671875 -33.671875 L 16.796875 -33.671875 L 16.796875 -12.53125 C 16.796875 -10.175781 17.222656 -8.53125 18.078125 -7.59375 C 18.929688 -6.65625 20.253906 -6.1875 22.046875 -6.1875 C 23.847656 -6.1875 25.660156 -6.75 27.484375 -7.875 L 29.890625 -1.6875 C 27.210938 0.1875 23.8125 1.125 19.6875 1.125 C 17.28125 1.125 15.242188 0.816406 13.578125 0.203125 C 11.921875 -0.410156 10.6875 -1.09375 9.875 -1.84375 C 9.070312 -2.59375 8.457031 -3.691406 8.03125 -5.140625 C 7.601562 -6.585938 7.363281 -7.722656 7.3125 -8.546875 C 7.257812 -9.378906 7.234375 -10.601562 7.234375 -12.21875 L 7.234375 -33.671875 L 1.53125 -33.671875 L 2.328125 -39.53125 C 4.847656 -39.75 6.75 -40.644531 8.03125 -42.21875 C 9.320312 -43.800781 10.503906 -46.039062 11.578125 -48.9375 Z M 11.578125 -48.9375 "/></g></g></g><g fill="#3e77ac" fill-opacity="1"><g transform="translate(963.33446, 421.935517)"><g><path d="M 17.203125 -40.421875 L 17.203125 -6.671875 L 21.78125 -6.421875 L 21.78125 0 L 2.65625 0 L 2.65625 -6.109375 L 5.296875 -6.34375 C 6.859375 -6.507812 7.640625 -7.367188 7.640625 -8.921875 L 7.640625 -31.265625 C 7.640625 -32.171875 7.488281 -32.785156 7.1875 -33.109375 C 6.894531 -33.429688 6.375 -33.59375 5.625 -33.59375 L 2.8125 -33.75 L 2.8125 -40.421875 Z M 7.078125 -47.359375 C 5.953125 -48.460938 5.390625 -49.867188 5.390625 -51.578125 C 5.390625 -53.296875 5.953125 -54.734375 7.078125 -55.890625 C 8.203125 -57.046875 9.671875 -57.625 11.484375 -57.625 C 13.304688 -57.625 14.789062 -57.046875 15.9375 -55.890625 C 17.09375 -54.734375 17.671875 -53.296875 17.671875 -51.578125 C 17.671875 -49.867188 17.09375 -48.460938 15.9375 -47.359375 C 14.789062 -46.265625 13.304688 -45.71875 11.484375 -45.71875 C 9.671875 -45.71875 8.203125 -46.265625 7.078125 -47.359375 Z M 7.078125 -47.359375 "/></g></g></g><g fill="#3e77ac" fill-opacity="1"><g transform="translate(987.118251, 421.935517)"><g><path d="M 2.171875 -33.984375 L 2.171875 -40.421875 L 15.75 -40.421875 L 15.75 -35.203125 C 17.144531 -37.179688 18.992188 -38.742188 21.296875 -39.890625 C 23.597656 -41.046875 26.085938 -41.625 28.765625 -41.625 C 32.835938 -41.625 35.984375 -40.457031 38.203125 -38.125 C 40.429688 -35.800781 41.546875 -32.304688 41.546875 -27.640625 L 41.546875 -6.671875 L 46.125 -6.421875 L 46.125 0 L 27 0 L 27 -6.109375 L 29.65625 -6.34375 C 30.457031 -6.457031 31.046875 -6.6875 31.421875 -7.03125 C 31.796875 -7.375 31.984375 -8.03125 31.984375 -9 L 31.984375 -25.546875 C 31.984375 -28.492188 31.523438 -30.675781 30.609375 -32.09375 C 29.703125 -33.519531 27.972656 -34.234375 25.421875 -34.234375 C 22.878906 -34.234375 20.859375 -33.425781 19.359375 -31.8125 C 17.859375 -30.207031 17.109375 -28.304688 17.109375 -26.109375 L 17.109375 -6.671875 L 21.703125 -6.421875 L 21.703125 0 L 2.578125 0 L 2.578125 -6.109375 L 5.21875 -6.34375 C 6.019531 -6.457031 6.609375 -6.6875 6.984375 -7.03125 C 7.359375 -7.375 7.546875 -8.03125 7.546875 -9 L 7.546875 -31.265625 C 7.546875 -32.867188 6.878906 -33.695312 5.546875 -33.75 Z M 2.171875 -33.984375 "/></g></g></g><g fill="#3e77ac" fill-opacity="1"><g transform="translate(1035.328684, 421.935517)"><g><path d="M 38.40625 -0.078125 C 37.925781 5.867188 36.210938 10.234375 33.265625 13.015625 C 30.316406 15.804688 25.707031 17.203125 19.4375 17.203125 C 13.175781 17.203125 8.273438 16.316406 4.734375 14.546875 L 4.734375 3.375 L 12.375 2.734375 L 12.375 6.59375 C 12.375 8.039062 13.039062 9.015625 14.375 9.515625 C 15.71875 10.023438 17.566406 10.28125 19.921875 10.28125 C 23.359375 10.28125 25.769531 9.25 27.15625 7.1875 C 28.550781 5.125 29.25 2.21875 29.25 -1.53125 L 29.25 -5.953125 C 26.675781 -2.953125 23.113281 -1.453125 18.5625 -1.453125 C 15.78125 -1.453125 13.328125 -1.984375 11.203125 -3.046875 C 9.085938 -4.117188 7.441406 -5.566406 6.265625 -7.390625 C 3.960938 -11.035156 2.8125 -15.320312 2.8125 -20.25 C 2.8125 -27.269531 4.710938 -32.585938 8.515625 -36.203125 C 12.316406 -39.816406 17.378906 -41.625 23.703125 -41.625 C 28.953125 -41.625 33.910156 -40.632812 38.578125 -38.65625 L 38.578125 -8.84375 C 38.578125 -4.289062 38.519531 -1.367188 38.40625 -0.078125 Z M 29.25 -16.390625 L 29.25 -33.671875 C 27.375 -34.316406 25.234375 -34.640625 22.828125 -34.640625 C 19.554688 -34.640625 17.050781 -33.429688 15.3125 -31.015625 C 13.570312 -28.609375 12.703125 -25.34375 12.703125 -21.21875 C 12.703125 -12.75 15.484375 -8.515625 21.046875 -8.515625 C 23.359375 -8.515625 25.300781 -9.222656 26.875 -10.640625 C 28.457031 -12.066406 29.25 -13.984375 29.25 -16.390625 Z M 29.25 -16.390625 "/></g></g></g></svg>