<svg xmlns="http://www.w3.org/2000/svg" xmlns:xlink="http://www.w3.org/1999/xlink" width="500" zoomAndPan="magnify" viewBox="0 0 375 374.999991" height="500" preserveAspectRatio="xMidYMid meet" version="1.0"><defs><clipPath id="41f5b0b807"><path d="M 37.5 37.5 L 337.5 37.5 L 337.5 337.5 L 37.5 337.5 Z M 37.5 37.5 " clip-rule="nonzero"/></clipPath></defs><path fill="#3e77ac" d="M 67.167969 239.914062 L 67.167969 241.570312 C 67.167969 258.050781 80.511719 271.449219 96.976562 271.515625 L 97.117188 271.515625 C 97.777344 271.570312 98.476562 271.585938 99.175781 271.585938 C 109.902344 271.550781 120.609375 271.515625 131.355469 271.515625 L 277.902344 271.515625 C 294.4375 271.515625 307.847656 258.105469 307.847656 241.570312 L 307.847656 239.914062 Z M 221.894531 250.8125 C 198.976562 250.726562 176.058594 250.726562 153.140625 250.8125 C 150.015625 250.832031 148.289062 249.417969 147.070312 246.574219 L 227.929688 246.574219 C 226.726562 249.382812 225.035156 250.832031 221.894531 250.8125 Z M 221.894531 250.8125 " fill-opacity="1" fill-rule="nonzero"/><path fill="#3e77ac" d="M 94.1875 230.058594 L 101.425781 230.058594 L 101.425781 127.570312 C 101.425781 124.464844 101.929688 123.960938 105.085938 123.960938 L 269.722656 123.960938 C 273.15625 123.960938 273.59375 124.394531 273.59375 127.8125 L 273.59375 230.058594 L 294.140625 230.058594 C 294.121094 195.644531 294.140625 161.265625 294.121094 126.855469 C 294.121094 113.335938 284.214844 103.429688 270.644531 103.414062 C 215.25 103.394531 159.835938 103.394531 104.441406 103.429688 C 102.4375 103.429688 100.394531 103.621094 98.460938 104.09375 C 87.90625 106.605469 80.894531 115.585938 80.894531 126.558594 C 80.859375 161.058594 80.949219 195.539062 80.824219 230.039062 L 80.824219 230.058594 Z M 94.1875 230.058594 " fill-opacity="1" fill-rule="nonzero"/><path fill="#3e77ac" d="M 208.917969 149.738281 C 201.4375 147.15625 194.285156 143.84375 188.109375 138.765625 C 187.570312 138.3125 187.273438 138.558594 186.835938 138.871094 C 185.335938 139.988281 183.855469 141.15625 182.265625 142.152344 C 174.382812 147.105469 165.734375 150.226562 156.835938 152.738281 C 154.8125 153.3125 152.789062 153.820312 150.75 154.359375 C 150.734375 154.65625 150.699219 154.882812 150.699219 155.109375 C 150.835938 160.9375 151.273438 166.726562 152.265625 172.484375 C 154.238281 184.027344 158.128906 194.808594 164.789062 204.503906 C 170.441406 212.722656 177.503906 219.402344 186.347656 224.109375 C 187.132812 224.527344 187.691406 224.496094 188.425781 224.023438 C 201.4375 215.914062 210.59375 204.503906 216.714844 190.605469 C 221.6875 179.320312 223.847656 167.390625 224.285156 155.109375 C 224.300781 154.394531 223.988281 154.238281 223.394531 154.0625 C 218.5625 152.6875 213.679688 151.394531 208.917969 149.738281 Z M 192.226562 184.484375 C 192.277344 184.847656 192.347656 185.234375 192.472656 185.632812 C 192.996094 187.308594 193.324219 189.035156 193.777344 190.867188 C 189.523438 190.867188 185.441406 190.867188 181.203125 190.867188 C 181.691406 188.878906 182.128906 186.960938 182.652344 185.058594 C 182.703125 184.847656 182.722656 184.65625 182.753906 184.464844 C 180.246094 182.878906 178.570312 180.105469 178.570312 176.914062 C 178.570312 171.976562 182.582031 167.964844 187.515625 167.964844 C 192.453125 167.964844 196.464844 171.976562 196.464844 176.914062 C 196.449219 180.121094 194.753906 182.894531 192.226562 184.484375 Z M 192.226562 184.484375 " fill-opacity="1" fill-rule="nonzero"/><g clip-path="url(#41f5b0b807)"><path fill="#3e77ac" d="M 187.5 37.5 C 104.789062 37.5 37.5 104.789062 37.5 187.5 C 37.5 270.210938 104.789062 337.5 187.5 337.5 C 270.210938 337.5 337.5 270.210938 337.5 187.5 C 337.5 104.789062 270.210938 37.5 187.5 37.5 Z M 187.5 334.011719 C 106.710938 334.011719 40.988281 268.289062 40.988281 187.5 C 40.988281 106.710938 106.710938 40.988281 187.5 40.988281 C 268.289062 40.988281 334.011719 106.710938 334.011719 187.5 C 334.011719 268.289062 268.289062 334.011719 187.5 334.011719 Z M 187.5 334.011719 " fill-opacity="1" fill-rule="nonzero"/></g></svg>